<?xml version="1.0" encoding="utf-8"?>
<!-- Generator: Adobe Illustrator 22.0.1, SVG Export Plug-In . SVG Version: 6.00 Build 0)  -->
<svg version="1.1" xmlns="http://www.w3.org/2000/svg" xmlns:xlink="http://www.w3.org/1999/xlink" x="0px" y="0px"
	 viewBox="0 0 1080 1080" style="enable-background:new 0 0 1080 1080;" xml:space="preserve">
<style type="text/css">
	.st0{display:none;fill:#269DC6;}
	.st1{display:none;fill:#29ABE2;}
	.st2{fill:#F4F7BF;}
	.st3{fill:#FF9370;}
	.st4{fill:#FF561F;}
	.st5{fill:#8D1CFF;}
	.st6{fill:#470E80;}
	.st7{fill:#6A15BF;}
	.st8{display:none;}
	.st9{display:inline;fill:#8D1CFF;}
	.st10{display:inline;fill:#6A15BF;}
	.st11{fill:#8C1AFF;}
	.st12{fill:#FFB096;}
	.st13{fill:#4D4D4D;}
	.st14{fill:#FF926E;}
	.st15{opacity:0.2;}
	.st16{fill:#AABF00;}
	.st17{fill:#FFFF00;}
	.st18{opacity:0.3;fill:#AABF00;}
	.st19{fill:none;}
	.st20{fill:#889900;}
	.st21{fill:#FFFFFF;}
	.st22{fill:#E0FBF5;}
	.st23{display:inline;fill:#4D4D4D;}
	.st24{fill:#D4DF00;}
	.st25{fill:#6EEDCF;}
	.st26{fill:#E3FBF6;}
	.st27{fill:#00DFAA;}
	.st28{fill:#61EBCA;}
</style>
<g id="ENFEITES">
	<polygon class="st0" points="1100.2,623 555.3,517.1 555.3,148.3 1100.2,254.2 	"/>
	<polygon class="st1" points="10.4,624.6 555.3,518.6 555.3,149.9 10.4,255.8 	"/>
	<path class="st2" d="M320.1,744.9C175.6,652.4,171.6,477,244.5,445.3c40-17.4,113.1,4.3,143.6,13.4c12,3.6,64.7,19.9,112,58.8
		c98.5,81.2,115.8,213.6,75.6,225.5c-41.2,12.2-175.9-92.3-194.8-210.3c-4.9-30.7-14.5-91.1,41.3-134.7
		c70.6-55.1,214.8-58.9,292-20.4c157,78.4,69.4,348.1-46,366.9c-85.3,13.9-239.4-100.5-211.8-188.4
		c32.4-103.1,311.4-158.4,423.3-87.8c94.7,59.7,58.2,202.4-48.5,277.7C697.2,840.8,452.7,829.7,320.1,744.9z"/>
</g>
<g id="PESCOÇO">
	<path class="st3" d="M673.1,450.4c-7.4,6.5-12.8,3.6-50,5.3c-31.7,1.5-40.5,4.2-44.2-1.5c-5-7.5,9-16,12.6-42.3
		c1.6-11.4,1.5-28.3,0.6-39.1c-0.3-3.7-1.2-14.3,3.5-26.1c0.4-0.9,0.7-1.9,1.2-2.8c8.8-16.1,38.9-23.5,50.5-13.1
		c9.3,8.3,0.7,22.5,6.9,39.5c0.9,2.5,2.1,5,3.8,7.6c0.8,1.2,1.6,2.3,2.3,3.3c0.5,0.6,1,1.2,1.5,1.8c-1.2,3.6-2.6,6.8-3.8,9.3
		c0,0,0,0.1,0,0.1c-4.2,9.2-9.3,16.1-13.3,20.8c4.1,6.7,8.2,13.5,12.3,20.2c11.6-10.8,18.9-23.8,20.8-36.3c0.5,0.8,1.1,1.7,1.6,2.7
		C687.6,415.2,686,439.2,673.1,450.4z"/>
</g>
<g id="roupa">
	<g id="Camada_9">
		<g>
			<path class="st4" d="M572.6,601c4.8,23.2,75,68,113.8,48.4c51.3-25.9,53.9-165.6-7.8-200.2c-17-9.5-37.5-7.3-56.3-8
				c-12.6-0.5-38.9-12.9-48.6-2.7c-9,9.3,10,29,8.6,70.1C581.7,526.3,581.3,538.5,572.6,601z"/>
		</g>
	</g>
	<g id="Camada_7">
		<path class="st5" d="M802.5,540.8c0-1-0.1-2-0.2-3c-1.1-12.4-3.6-24.8-7.5-36.6c-2.7-8.2-6.3-15.8-9.8-23.7
			c-3.3-7.3-4.7-15.5-7-23.1c-8-26-8-28.8-12.6-33.7c-5.3-5.5-11.1-8.1-22.4-13c-7.1-3.1-8.3-2.9-26.6-8.7
			c-10.3-3.3-15.4-5.2-26.2-8.4c-6.5-1.9-11.1-3.2-14.5-4c-6.5-1.5-8.4-1.1-10,0c-6.5,4.2-1.8,13.2-9.6,21c-4.1,4.1-8,4.2-11.4,5.6
			c-1.8,0.7-3.5,1.8-5.1,4.1c-4.8,6.8-3.4,15.3-2.9,18.5c4.6,30.6-4.1,17.1,5.8,74.8c0.7,4.1,1.2,6.8,1.7,9c1.3,6.6,2,7.7,5,24.1
			c5.1,27.2,6.9,41.7,12.9,65.9c0.3,1,0.5,2,0.7,2.9c2.6,10.5,4.4,17.5,6.4,21.9v0c0.8,1.9,1.7,3.3,2.6,4.3
			c11,11.9,25.3,8.2,66.1,14.6c9.3,1.5,14.8,6.4,22.8,4.4c2.8-0.7,5.3-1.9,7.5-3.4c0,0,0,0,0.1,0c6.7-4.6,11.1-12.1,14.5-17.9
			c12.4-21.1,7-34.6,18.8-42.8c0.3-0.2,0.7-0.5,1.1-0.8c0.8-0.6,1.8-1.3,2.8-2.2c0,0,0,0,0,0c1.7-1.5,3.3-3.5,4.1-6.2
			c0-0.1,0.1-0.2,0.1-0.4c0.7-2.7-0.3-5.1-1.1-10c0-0.2-0.1-0.3-0.1-0.5c-0.1-0.9-0.3-1.7-0.5-2.5l0-0.1L802.5,540.8z"/>
		<path class="st6" d="M671.2,380.5c0.7,2.9-1.6,4.4-4.2,4.5c-4.7,0.2-7-3.1-9.1-6.7c-0.1-0.1-0.3-0.4-0.5-0.9
			c-0.8-1.4-1.2-2.1-1.4-2.4c-0.6-1.2-0.9-2.1-1.5-3.9c-0.3-0.8-0.4-1.2-0.3-1.4c0.6-1.3,6-0.5,10.2,2c0.8,0.4,1.3,0.9,1.7,1.2
			C667.5,374.7,670.6,377.7,671.2,380.5z"/>
		<path class="st7" d="M677.8,397.1c-0.1,7.2-2.9,12-6.8,18.8c-3.5,6.2-8.2,12.1-14,17.5c-4.1-6.7-8.2-13.5-12.3-20.2
			c4.1-4.8,9.1-11.7,13.3-20.8c0,0,0-0.1,0-0.1c2.2-4.4,3.4-7.9,3.8-9.1c0,0,0-0.1,0.1-0.2c0.7-2.1,1.3-4.2,1.6-6.4
			c0.1-0.9,0.3-1.8,0.3-2.7c0-0.5-0.4-2.1,0.1-2.4c0.5-0.4,1.4,0.4,1.8,0.7c4.3,3.3,6,6.3,6,6.3
			C674.7,383.9,677.9,389.4,677.8,397.1z"/>
	</g>
	<g id="Camada_11" class="st8">
		<path class="st9" d="M539.5,545.5c-2.9,2.5-4.8,2-9,3.1c0,0,4-14.2,2.5-14.8c-0.8-0.3-3.1,3.2-7,10c-1,1.7-2.1,3.5-3.3,5.6
			c-1.5,2.6-3.2,5.4-5,8.6c-3.4,5.7-6,10.2-8.3,13.8c-5.8,9.1-8.6,12-13,13.2c-5.2,1.5-6.2-1.1-16.1-0.9
			c-11.4,0.2-17.6,3.6-23.3,4.9c-8.4,1.9-21.6,0.5-41.7-15.8c24-16,36.6-33,43.7-45.8c6.5-11.7,7.4-18.2,12.7-32.3
			c2.9-7.8,5.4-13.2,8.2-19.7c0,0,5.3-12.2,12.5-25.6c0.4-0.8,0.9-1.6,1.3-2.4c0.7-1.3,1.7-2.9,3.7-6c0-0.1,0.1-0.1,0.1-0.2
			c2.6-4,5.9-9.5,10.4-11.7c5.5-2.7,8.8,2.8,11,7.3c0.5,1,0.9,1.9,1.2,2.7c1.4,3,2.7,6.1,4,9.1c0.3,0.6,0.5,1.2,0.8,1.9
			c1.3,3.1,2.6,6.3,3.8,9.5c5.3,13.6,9.6,27.5,12.4,41.8C541.2,501.7,548.2,538,539.5,545.5z"/>
		<path class="st10" d="M527.4,441.7c-0.9,2.4-2,4.7-3.2,6.9c-5,9.2-11.9,16.8-14.6,18.5c-0.5,0.3-0.8,0.4-1,0.3
			c-0.2-0.1-0.2-0.4-0.2-1v0c0.3-2,1.6-6.6,0.5-13.4c-0.5-3.4-1.5-9.5-5.7-11.6c-2.3-1.1-4-0.4-5.8-0.1c0-0.1,0.1-0.1,0.1-0.2
			c2.6-4,5.9-9.5,10.4-11.7c5.5-2.7,8.8,2.8,11,7.3c0.1-0.3,0.1-0.6,0.2-0.9c0.9-4.8,0.9-7.6,1.3-9.8c0.4,0.7,0.7,1.3,1,2
			c0.1-0.3,0.1-0.6,0.2-0.9c0.5-2.8,0.7-4.9,0.9-6.6c0.7-1.2,1.7-2.3,2.8-3.2c0.9,1,1.7,2,2.3,3.1
			C531.2,426.5,530.3,434.3,527.4,441.7z"/>
		<path class="st10" d="M526,565.2c-1.1-5.3-2.3-10.5-3.3-15.8c-1.5,2.6-3.2,5.4-5,8.6c-3.4,5.7-6,10.2-8.3,13.8
			c-3.1-2.9,2.4-8.1,3.3-22.7c0.5-7.4-0.5-12.8,1.9-22.4c0.9-3.4,1.5-5.9,2.5-6.7c0.2-0.2,0.4-0.3,0.6-0.3
			c3.1-0.3,6.5,13.8,8.2,24.2c0.2,1.4,0.4,2.6,0.6,3.8C528,557.4,527.1,562.5,526,565.2z"/>
	</g>
	<g id="Camada_10">
		<path class="st5" d="M600.8,489.2c-1.4,9.6-1.9,8.3-6.8,30.1c-8.8,39.7-13.3,59.5-14.6,76.8c-1.1,15.1,0.1,20.7-4.9,25.3
			c-8.4,7.7-27.1,5.8-36.3-4c-5.9-6.3-6.5-14.2-7.1-21.3c-1-10.4-3-20.7-5.1-30.9c-1.1-5.3-2.3-10.5-3.3-15.8
			c-0.9-4.2-1.7-8.5-2.4-12.7c-1-6.2-2.1-11.7-3.2-16.8c-4.9-23.6-9.4-35.1-9.9-44.1c-0.2-3.3,0.2-6.3,1.3-9.5v0
			c0.3-0.8,0.6-1.6,1-2.4c2-4.3,7.8-18.8,9.5-27.3c0.1-0.3,0.1-0.6,0.2-0.9c0.9-4.8,0.9-7.6,1.3-9.8c0.1-0.7,0.2-1.3,0.4-1.9
			c0.1-0.2,0.1-0.4,0.2-0.6c0,0,0.5-1.2,1.1-2.3c0.1-0.2,0.3-0.5,0.4-0.7c0.7-1.2,1.7-2.3,2.8-3.2c5-4.4,13.1-6.4,18.7-8.6
			c14.3-5.8,15.1-8.6,32.7-14.4c7.4-2.4,9.6-2.5,10.7-2.3c0,0,0.3,0.1,0.5,0.1c5.2,1.6,8.1,10.6,12.5,23.9
			c2.8,8.5,3.7,11.3,2.9,15.4c-0.8,3.7-2,4.7-3.6,7.8c-4.4,8.8,3.1,13.8,2.9,31.6C602.4,478,601.1,487.2,600.8,489.2z"/>
	</g>
	<g id="Camada_20">
	</g>
	<path class="st7" d="M576.9,391c-2.1,4.6-0.8,9,1,17.8c1.1,5.2,3.2,12.9,7.8,21.7c1.7-2.1,3.6-4.3,5.8-6.5c3.1-3.1,6.1-5.7,8.9-7.9
		c-2.5-5.7-5.3-13.8-6.7-23.8c0-0.1,0-0.1,0-0.1c-0.3-2.2,2.2-3.8,4.4-6.4c0.5-0.6,4.1-4.9,2.9-6.8c-0.5-0.9-1.9-0.9-3.2-1
		c-3.1-0.1-5.5,1-6.2,1.3C585.4,382.2,579.6,385,576.9,391z"/>
</g>
<g id="CABEÇA">
	<path class="st11" d="M684.9,251.5"/>
	<g>
		<path class="st12" d="M563,277c-5.1,8.6-3,16.6-2.1,30.4c1.5,23.4-3.1,22-0.9,35.3c1,6.1,7,37.2,29.5,43.8
			c11.4,3.4,22.6-1.4,32.7-6.4c7.6-3.8,21.5-10,21.1-20.1c-0.2-3.8-2.7-6-1.3-9.6c1.7-4.4,8.1-6,11.3-9.1c7-6.8,16-38.9-3.6-34
			c-5.8,1.5-9.5,8.1-8.9,13.8c-1.4-3.6,1-8.1,1.7-11.9c6.3-37.2-35.2-61.6-67.2-43.4C571.8,267.9,566.6,271,563,277z"/>
		<path class="st13" d="M558.1,290c0.8,9.2,5.8,15.9,10.5,16.3c7.8,0.6,15.6-16.2,12.5-19.6c-0.5-0.6-1.4-0.9-2.1-0.6
			c-3.3,1.5-1.9,19.4,4.8,21.8c7.6,2.6,21.4-14.5,18.8-19.1c-0.6-1.1-2.3-1.7-3.3-1.2c-3.6,1.8-1.8,19.6,5.4,22.1
			c8.2,2.8,21.9-14.2,19.4-18.5c-0.9-1.6-4.5-2-6.4-0.6c-4.8,3.5-1.9,20.4,4.8,22.4c7.7,2.2,20-15.1,17.6-18.5c-0.7-1-3-1.2-4.5-0.3
			c-4.1,2.6-0.8,10.4,0.2,13.9c2,7.2,0.5,16-2.1,22.9c-0.6,1.5-1.4,3.4-1,5c0.4,2,2.7,1.6,4.1,0.9c3.2-1.6,2.7-4.9,3-7.9
			c0.3-4,1.7-8.8,3.3-12.4c1.4-3.3,3.8-6.7,7.5-7.5c6.1-1.4,10.8,3.7,11,9.4c0.2,5.2-2.1,10.6-4.9,14.8c-4.3,6.3-8.1,5.9-9.4,11
			c-1,4,0.3,8.3,2.2,11.8c1.2,2.2,2.6,4.3,4.2,6.2c0.5,0.6,1.7,2.3,2.6,2.3c1.2,0,0.4-1.2,0.1-1.9c-0.8-2.2-1.7-4.4-1.9-6.8
			c-0.9-10.4,8.3-14.5,14.9-28.7c5.1-11,6.8-24.3,4.5-25.3c-1.8-0.7-4.3,2.7-4.6,4.1c-0.7,3,1.6,4.6,2.9,6.8c1.7,3,2.2,6.5,2.3,9.8
			c3.6-5.9,5.3-13.1,6.2-19.9c0.6-4.4,3.6-17.4-2.2-19.8c-2.6-1.1-5.6,1.4-6.1,4.1c-0.9,5.2,4.4,10.2,6.3,14.8c3.4,8.3,2,14,2.7,14
			c1.9,0.1,12.2-36.8-2.1-47.1c-4.8-3.5-12.3-3.8-17.3-1.2c-8.4,4.3-11,17-10.2,17.3c1.1,0.5,16.2-20.4,10.6-28.9
			c-4.5-6.7-21.9-5.8-24.2-0.6c-1.5,3.5,3.3,10.2,6.4,9.8c2.3-0.3,3.4-4.4,3.6-5.1c2.6-9.1-4.3-24.7-14.8-24.8
			c-7.5-0.1-14.2,7.8-15.4,15.2c-1.1,6.8,2.3,14.2,4.2,14c2-0.1,4.2-8.2,2.7-14.9c-2.5-11.8-16.8-24.2-27.6-20.3
			c-12.1,4.3-14.9,27.5-7.9,33.1c3.4,2.7,9.9,2.2,11.5-0.6c2.4-4.3-5.9-16.4-17.3-20c-14.4-4.5-27.2,6.6-27.9,7.2
			c-13.6,12.1-10.2,31.9-10,33.1c1.4,8,4.8,8.8,6.4,19.4c1.6,10.8-0.8,18.6,0.9,19.1c1.2,0.3,4.5-4.1,6.4-9.8
			c4.7-14.1-1.1-29.1-1.8-28.9C557.3,281.9,557.3,283.6,558.1,290z"/>
	</g>
</g>
<g id="FUMAÇA">
	<path class="st5" d="M465.2,389.3"/>
</g>
<g id="POLGAR">
</g>
<g id="CANECA">
</g>
<g id="PLANTAS">
	<path class="st7" d="M799.3,568c2-8.6,2.4-17.8,2.6-25.9c-2.1,15-1.4,30.3-3.1,45.1c-0.5,4.6-1.4,6.8-4.8,16.9
		c-8.7,25.6-7.9,26.4-11.3,32.2c-3.4,5.8-7.8,13.3-14.5,17.9c0,0,0,0-0.1,0c-2.3,1.4-4.6,2.4-6.7,2.8c-1.3,0.3-2.8,0.5-2.8,0.5
		c-3.4,0.2-6.9-1.5-20.2-4.3c-41.8-8.8-55.4-3-66.1-14.6c-1.3-1.4-2.4-2.8-3.3-4.3c-5.1-7.9-6.2-16.9-6.4-21.9c-0.1-1.3,0-2.3,0-2.9
		c0.5-30.9,32.4-37,45.3-72.4c12.9-35.5-4.3-70.1,0.1-71.1c3.3-0.8,11.4,20,15.5,35.5c2.6,9.8,3.9,14.7,3.5,19
		c-1.9,19.4-21.4,33.4-17.9,41.8c1.5,3.6,4.1,7.2,4.1,7.2c0.9,1.3,2,2.6,3.7,4.3c1.7,1.7,3.3,2.9,4.9,4c6.4,4.3,23,9.5,29.1,11.5
		c14.4,4.6,18.3,6.8,25.3,5.4c0.2-0.1,4.8-1.2,9-4C793.2,585.3,797.2,577,799.3,568z"/>
	<g id="MESA">
		<g>
			<path class="st14" d="M866.1,654.3v35c-67.8,20.1-135.5,40.1-203.3,60.2c-162.5-27.8-325.1-55.5-487.6-83.3v-43.5l236.7-27
				l143.3,18.5c0,0,0,0,0,0l149.2,19.2L866.1,654.3z"/>
		</g>
	</g>
	<g id="objs_x5F_mesa">
		<g id="notebook">
			<g id="inf_x5F_note">
				<path class="st15" d="M769,696.4c0,1.4-1.7,2.9-4.9,4.4c-1.3,0.6-2.9,1.2-4.7,1.7L643,737.8c-47.9-13-103.5-31.4-151.4-44.4
					l125.9-25c10.4-3.1,24.8-3.9,32.2-1.9l114.9,26.7C767.6,694,769,695.1,769,696.4z"/>
				<path class="st16" d="M766.1,683.2v7.7c0,1.9-3.3,4.2-9.6,6l-115.8,34.3l-143.8-39l13.6-4l130.3,35.4l115.8-34.3
					c1.8-0.5,3.4-1.1,4.7-1.7C764.4,686.1,766.1,684.6,766.1,683.2z"/>
				<path class="st17" d="M766.1,683.2c0,1.4-1.7,2.9-4.9,4.4c-1.3,0.6-2.9,1.2-4.7,1.7l-115.8,34.3l-130.3-35.4l-13.6-3.7
					l115.8-34.3c10.4-3.1,24.8-3.9,32.2-1.9l116.9,31.7C764.7,680.9,766.1,682,766.1,683.2z"/>
				<path class="st18" d="M715.9,672.4c0,0.5-0.7,1.1-1.9,1.7c-0.5,0.2-1.1,0.5-1.8,0.7l-45.5,13.5l-51.2-13.9l-5.3-1.4l45.5-13.5
					c4.1-1.2,9.7-1.5,12.7-0.8l45.9,12.5C715.4,671.4,715.9,671.9,715.9,672.4z"/>
				<line class="st19" x1="766.1" y1="717.8" x2="766.1" y2="711.3"/>
				<line class="st19" x1="766.1" y1="703.6" x2="766.1" y2="699.5"/>
				<path class="st13" d="M765.9,683.2c0,1.4-1.7,2.9-4.9,4.4c-1.3,0.6-2.9,1.2-4.7,1.7l-115.8,34.3l-130.3-35.4l-13.6-3.7
					l115.8-34.3c10.4-3.1,24.8-3.9,32.2-1.9l116.9,31.7C764.5,680.9,765.9,682,765.9,683.2z"/>
				<polygon class="st20" points="640.7,731.3 496.9,692.2 496.9,684.5 640.7,723.6 				"/>
			</g>
			<g id="book">
				<path class="st15" d="M419.5,603c17.7,7.2,85.5,19.6,103.2,26.8c17.7,7.2,35.4,11.3,53,18.6c-25.8,7.4-52.6,14.6-78.5,22
					c-27.8-9.4-129.1-35.5-156.9-44.9C358.7,612.9,401.3,615.4,419.5,603z"/>
				<path class="st13" d="M568.3,644.8c0,0.7-1,1.4-2.8,2.1c-0.7,0.3-1.6,0.6-2.7,0.8l-65.9,16.5l-74.2-17l-7.7-1.8l65.9-16.5
					c5.9-1.5,14.1-1.9,18.3-0.9l66.6,15.3C567.5,643.6,568.3,644.2,568.3,644.8z"/>
				<path class="st13" d="M339.3,625c0,0.7,1,1.4,2.8,2.1c0.7,0.3,1.6,0.6,2.7,0.8l65.9,16.5l74.2-17l7.7-1.8l-65.9-16.5
					c-5.9-1.5-14.1-1.9-18.3-0.9l-66.6,15.3C340.1,623.8,339.3,624.4,339.3,625z"/>
				<path class="st21" d="M490.9,623.9l-7.7,1.8l-74.2,17l-65.9-16.5c-1-0.3-1.9-0.5-2.7-0.8c-1.8-0.7-2.8-1.4-2.8-2.1
					c0-0.3,0.2-0.5,0.5-0.8c0.4-0.3,1-0.5,1.8-0.7h0c0,0,0.1,0,0.1,0l66.6-15.3c4.2-1,12.4-0.6,18.3,0.9l58.6,14.7l0.2,0.1h0
					l3.5,0.9h0L490.9,623.9z"/>
				<path class="st21" d="M490.9,622.2l-3.6,0.8h0l-4.1,1L409,641l-0.1,0l-65.8-16.5c-1-0.3-1.9-0.5-2.7-0.8c-1-0.4-1.8-0.8-2.3-1.2
					c-0.4-0.3-0.5-0.6-0.5-0.9c0-0.3,0.2-0.6,0.5-0.8c0.4-0.3,1-0.5,1.9-0.7l66.6-15.3c4.2-1,12.4-0.6,18.3,0.9l62.2,15.6l0.1,0
					L490.9,622.2z"/>
				<path class="st21" d="M490.9,620.5l-3.5,0.8l-3.6,0.8l-0.6,0.1l-74.2,17l-0.2-0.1l-65.7-16.5c-1-0.3-1.9-0.5-2.7-0.8
					c-0.2-0.1-0.3-0.1-0.4-0.2c-0.8-0.3-1.4-0.7-1.8-1c-0.4-0.3-0.5-0.6-0.5-0.9c0-0.6,0.8-1.1,2.5-1.5l66.6-15.3
					c4.2-1,12.4-0.6,18.3,0.9L490.9,620.5z"/>
				<polygon class="st15" points="490.9,622.2 487.3,623 490.9,623.9 490.9,625.2 409,642.7 408.9,641 408.8,639.2 408.7,638 
					483.5,622.1 487.2,621.3 490.9,620.5 487.4,621.3 				"/>
				<path class="st21" d="M568.3,639.9c0,0.7-1,1.4-2.8,2.1c-0.7,0.3-1.6,0.6-2.7,0.8l-65.9,16.5l-74.2-17l-7.7-1.8l65.9-16.5
					c5.9-1.5,14.1-1.9,18.3-0.9l66.6,15.3C567.5,638.8,568.3,639.3,568.3,639.9z"/>
				<path class="st21" d="M568.3,641.6c0,0.7-1,1.4-2.8,2.1c-0.7,0.3-1.6,0.6-2.7,0.8l-65.9,16.5l-74.2-17l-7.7-1.8l65.9-16.5
					c5.9-1.5,14.1-1.9,18.3-0.9l66.6,15.3C567.5,640.5,568.3,641,568.3,641.6z"/>
				<path class="st21" d="M568.3,643.3c0,0.7-1,1.4-2.8,2.1c-0.7,0.3-1.6,0.6-2.7,0.8l-65.9,16.5l-74.2-17L415,644l65.9-16.5
					c5.9-1.5,14.1-1.9,18.3-0.9l66.6,15.3C567.5,642.2,568.3,642.7,568.3,643.3z"/>
				<path class="st22" d="M421,630.1c0,0.2-0.3,0.4-0.7,0.5c-0.2,0.1-0.4,0.1-0.7,0.2l-17.2,4.3L347.9,622l-2-0.5l17.2-4.3
					c1.5-0.4,3.7-0.5,4.8-0.2l52.5,12.8C420.8,629.8,421,630,421,630.1z"/>
				<path class="st22" d="M468.3,617.5c0,0.2-0.3,0.4-0.7,0.5c-0.2,0.1-0.4,0.1-0.7,0.2l-17.2,4.3l-54.5-13.2l-2-0.5l17.2-4.3
					c1.5-0.4,3.7-0.5,4.8-0.2l52.5,12.8C468.1,617.2,468.3,617.4,468.3,617.5z"/>
				<path class="st22" d="M423,618.3c-6.3,1.6-12.6,3.3-18.9,4.9l-31.8-7.3l-2-0.5c6.9-1.8,13.9-3.5,20.8-5.3
					C401.8,612.9,412.4,615.6,423,618.3z"/>
				<path class="st22" d="M445.4,624c0,0.2-0.3,0.4-0.7,0.5c-0.2,0.1-0.4,0.1-0.7,0.2l-17.2,4.3l-19.3-4.4l-2-0.5l17.2-4.3
					c1.5-0.4,3.7-0.5,4.8-0.2l17.3,4C445.2,623.7,445.4,623.9,445.4,624z"/>
				<path class="st22" d="M505.8,651.4c0,0.2-0.3,0.4-0.7,0.5c-0.2,0.1-0.4,0.1-0.7,0.2l-17.2,4.3l-54.5-13.2l-2-0.5l17.2-4.3
					c1.5-0.4,3.7-0.5,4.8-0.2l52.5,12.8C505.6,651.1,505.8,651.2,505.8,651.4z"/>
				<path class="st22" d="M553,639.3c0,0.2-0.3,0.4-0.7,0.5c-0.2,0.1-0.4,0.1-0.7,0.2l-17.2,4.3l-54.5-13.2l-2-0.5l17.2-4.3
					c1.5-0.4,3.7-0.5,4.8-0.2l52.5,12.8C552.8,639,553,639.2,553,639.3z"/>
				<path class="st22" d="M530.3,645.3c0,0.2-0.3,0.4-0.7,0.5c-0.2,0.1-0.4,0.1-0.7,0.2l-17.2,4.3l-54.5-13.2l-2-0.5l17.2-4.3
					c1.5-0.4,3.7-0.5,4.8-0.2l52.5,12.8C530,645.1,530.3,645.2,530.3,645.3z"/>
				<line class="st19" x1="608.4" y1="676.9" x2="608.4" y2="671.3"/>
				<line class="st19" x1="608.4" y1="664.8" x2="608.4" y2="661.4"/>
				<path d="M569.2,688.2"/>
				<path class="st22" d="M383.7,664.1"/>
			</g>
			<g id="SUP_x5F_note" class="st8">
				<path class="st23" d="M490.6,664l-0.9-0.2l-21.5-4.6l-12.4-2.6L318,627.4l-6.8-13.7l-48.4-97.6c-4.9-10-1.7-16.5,7.2-14.6
					l140.3,29.8c8.9,1.9,20.1,11.5,25.1,21.5l16.8,33.9l9.8,19.8l1.4,2.7l4.8,9.7l15.3,30.8l3.2,6.4l3.8,7.6L490.6,664z"/>
			</g>
		</g>
	</g>
</g>
<g id="Camada_1" class="st8">
	
		<image style="display:inline;overflow:visible;" width="2441" height="1627" xlink:href="contact.jpg"  transform="matrix(0.75 0 0 0.75 -375 -70)">
	</image>
</g>
<g id="Camada_25">
</g>
<g id="BRACO_x5F_ESQ">
	<g id="MAO_x5F_DIR">
		<path class="st15" d="M704.3,633.4L704.3,633.4c-5.6,5.2-12,6.6-15,7.3c-40.5,8.8-37.2,11.4-56,12.7c-21.8,1.4-25-2.1-39.8,2
			c-4.1,1.1-3.1,1.9-22.4,7.6c-3.3,1-13.1,3.8-24,7.7c-14,5-16,6.7-21.6,6.3c-1.3-0.1-13.2-1.2-17.3-9.6c-2.8-5.7-1.4-13.2,0.6-13.7
			c0.7-0.2,1.2,0.7,2.8,0.9c2.1,0.3,3.9-0.7,4.7-1.2c5-2.8,14.7-18.2,18.2-22.9c3.3-4.5,8.7-10.1,18-14.8c0.1-0.1,0.2-0.1,0.3-0.2
			c0,0,0.8-0.5,2.2-1.2c0,0,0,0,0,0L704.3,633.4z"/>
		<path class="st12" d="M526.7,624.2c-0.1-0.1-0.1-0.2-0.1-0.2c-0.2-0.6-0.2-2.1,4.4-6.7c4.3-4.2,8.7-8.5,13.6-12.2
			c3-2.3,6.9-5.5,11-5.1c4.7,0.5,9.6,2.6,13.8,4.6c3.1,1.5,1.8,2.1,0.3,4c-2.7,3.3-5.6,7.7-9.9,8.5c-3.8,0.7-8.7-0.9-12.2,0.9
			c-2.4,1.2-2.6,2.2-3.9,3.4c-0.8,0.7-1.5,1.1-2.3,1.6c-5.9,3.3-6,4.3-8.2,4.4C530.4,627.4,527.7,625.7,526.7,624.2z"/>
		<path class="st3" d="M534.8,624.3c0.1-1,0.7-2.1,1.1-2.8c2-3.1,4.5-6.1,7.3-8.3c2-1.6,7.3-4.4,8.2-0.7c0.3,1.2-0.2,2.6-1,3.6
			c-0.8,1-1.9,1.7-3,2.2c-1.1,0.5-2.2,0.8-3.3,1.4c-1.9,0.9-3.7,2.2-5.2,3.9c-0.5,0.6-1,1.2-1.6,1.6c-0.6,0.5-1.3,0.7-1.9,0.5
			C535,625.5,534.8,624.9,534.8,624.3z"/>
		<path class="st12" d="M503.9,646.3C503.9,646.3,503.9,646.3,503.9,646.3c-0.4-0.2-1.8-0.9-2.1-2.2c-0.1-0.6,0-1.3,0.4-2.1
			c0.6-1,1.5-1.7,2.4-2.3c9.2-6.7,20.1-10.6,30-16.2c4.8-2.7,11.3-7.1,18-14.8c1.2-0.7,7.5-4.4,15.8-6c14.8-2.9,35.6,0.7,41.9,13.5
			c1.9,3.9,3.5,10.7,0.5,14.8c-3.1,4.1-7.1,1.9-13.7,7.1c-3.6,2.8-5.8,6.9-9,10c-3.9,3.9-8.4,5.2-16.9,8c-4.8,1.6-7.9,2.4-10.3,2.8
			c-3.2,0.6-5.8,1-7.4,1.2c-4,0.5-4.5,0.4-7,0.7c-5.9,0.8-10.3,2.6-17.3,3.5c-1,0.1-3,0.4-4.3-0.8c-0.7-0.6-1.3-1.8-1-2.7
			c0.2-0.5,0.8-1,1.2-1.3c-2.7-0.3-5.8,1.4-8.3,2.3c-0.2,0.1-0.6,0.2-1.2,0.3c-1.5,0.1-3.1-0.4-4-1.6c-0.3-0.5-0.5-1-0.5-1.5
			c0-1.5,2.1-1.9,2.1-2.9c0-1.1-2.3-2.2-4.2-2.4c-1.4-0.2-1.9,0.1-2.9-0.3c-0.9-0.4-1.6-1.4-1.5-2.3c0.2-1.3,2.5-1.4,2.4-2.4
			C507.1,647.7,504.8,646.7,503.9,646.3z"/>
		<path class="st3" d="M516.3,660.6c0.2-0.3,0.5-0.5,0.6-0.6c0.9-0.9,2.1-1.4,3.3-2c7.9-3.4,16.1-5.9,24.5-7.7
			c0.8-0.2,1.6-0.3,2.4-0.1c0.8,0.2,1.5,0.8,1.6,1.6c0.1,0.9-0.6,1.6-1.4,2c-0.8,0.3-1.7,0.3-2.5,0.3c-5.6-0.1-11.3,1.1-16.4,3.4
			c-3.2,1.4-4.3,2.3-8.5,3.6c-1.8,0.6-3.3,0.9-4.3,1.1C515.7,661.7,515.9,661.1,516.3,660.6z"/>
		<path class="st3" d="M510.7,653c0.3-0.2,0.6-0.4,0.7-0.5c1.1-0.8,2.1-1.6,3.2-2.2c7.7-3.8,15.7-6.9,24-9.2
			c0.8-0.2,1.6-0.4,2.4-0.3c0.8,0.1,1.6,0.7,1.7,1.5c0.1,0.8-0.5,1.7-1.3,2c-0.8,0.4-1.7,0.4-2.5,0.4c-5.6,0.3-11.2,1.8-16.2,4.4
			c-2.1,1.1-3.2,1.9-4.9,2.7c-2.1,1.1-2.9,1.3-3.3,1.4c-1.4,0.4-2.6,0.7-3.8,0.6c-1.1,0-1.9-0.2-1.9-0.3
			C508.9,653.5,509.7,653.5,510.7,653z"/>
		<path class="st3" d="M503.9,646.3c-0.1-0.4,2.1-1.5,8.7-4.7c6.3-3.1,13.2-5,19.8-7.6c0.3-0.1,1.3-0.4,2.4-0.1
			c0.8,0.2,1.5,0.8,1.6,1.6c0.1,0.9-0.6,1.6-1.4,2c-1.1,0.4-2.2,0.3-2.5,0.3c-2.5-0.5-5.4,0.5-7.8,1.3c-4.1,1.2-8,2.9-11.9,4.6
			C511.9,643.9,504.4,647.7,503.9,646.3z"/>
	</g>
	<path class="st5" d="M767.1,512.9c5.6,3.3,10.7,7.6,14.7,11.9c13.6,14.8,17.7,35.2,18.2,54.8c0.1,4-0.7,8.2-3.1,11.5
		c-4,5.5-10.4,5.2-16.2,7.4c-19,6.9-38.3,12.9-57.6,18.9c-17.5,5.4-35,10.7-52.4,16.1c-8.8,2.8-20,4.7-27.9,9.8
		c-1.2,0.8-6.6,4.3-14.3,6c-3.2,0.7-6.1,0.8-10,0.9c-2.9,0.1-6-0.2-9.3-0.9c-3.6-0.8-7.1-2.4-10.4-4.6c-18.6-12.3-30.3-43-21.4-55.7
		c3.5-4.9,8.9-5.5,20.1-7.8c0,0,29.9-3.9,73.9-21.1c13.4-5.2,25.3-13.5,36-23c9.7-8.6,17.5-21,29.2-27
		C746.6,504.9,757.6,507.4,767.1,512.9z"/>
</g>
<g id="braco_x5F_dir">
	<path class="st15" d="M400.7,602.6c-1.3,1.9-2.5,4.4-2,7c1.5,7.4,16.3,11.8,28,9c6.4-1.5,15-5.9,14.7-10.3
		c-0.4-5.9-16.2-8.5-17-8.7C414,597.9,405.3,600.7,400.7,602.6z"/>
	<path class="st5" d="M557.3,488.9c-2,6.3-7,8.6-11.2,12.7c-13.5,13.3-27.4,25.9-41.3,38.6c-9.9,9-19.9,17.9-29.8,26.9
		c-1.4,1.2-2.8,2.5-4.1,3.7c-1.3,1.2-2.6,2.4-3.9,3.6c-3.6,3.3-8,6.7-11.9,10.4c-3,2.8-5.8,5.7-8,8.8c-0.7,1-3.2,4.8-7.5,8.6
		c-0.8,0.7-1.6,1.4-2.5,2.1c-2.3,1.8-4.7,3.1-7.7,4.6c-2.3,1.2-4.8,2.1-7.5,2.8c-3,0.6-6.1,0.6-9.2-0.1c-6.8-1.4-13.3-5.7-18.5-11.3
		c-8.1-8.7-13-20.5-10.4-29.3c1.7-5.6,5.8-8.2,14.1-14.5c0,0,20.5-13.4,49.1-42c0.3-0.4,0.7-0.7,1.1-1.1c1.2-1.2,2.4-2.4,3.6-3.6
		c9.5-9.7,17.1-21.5,23.5-33.9c5.8-11.2,9.2-25.1,17.1-34.8c6.8-8.4,16-10.4,24.7-9.2c5.1,0.7,10.1,2.5,14.2,4.8
		c13.9,7.7,21.6,24.1,26.2,41C558.2,481.2,558.4,485.2,557.3,488.9z"/>
	<g id="Camada_27">
		<path class="st7" d="M470.8,570.8c-1.3,1.2-2.6,2.4-3.9,3.6c-3.6,3.3-8,6.7-11.9,10.4c-3,2.8-5.8,5.7-8,8.8
			c-0.7,1-3.2,4.8-7.5,8.6c-6.2-0.9-12.4-4.2-17.5-8.8c11.9-12.2,26.1-31,27.1-55.1c0.4-9.1-1.1-18.1-2.2-23.9c-0.8-4-1.3-6.4-1-6.5
			c0.3-0.1,1,2,2,5.5c1.8,6,4.7,16.2,9,27.5C461.8,553.7,466.9,563.8,470.8,570.8z"/>
	</g>
	<g>
		<g id="celular">
			<g>
				<path class="st24" d="M522.1,457.2l-37.4,4.7c-4.3,0.5-8.2-2.5-8.8-6.8l-10.4-83c-0.5-4.3,2.5-8.2,6.8-8.8l37.4-4.7
					c4.3-0.5,8.2,2.5,8.8,6.8l10.3,83C529.5,452.7,526.5,456.6,522.1,457.2z"/>
			</g>
		</g>
		<g id="celular_1_">
			<g>
				<path class="st25" d="M478.2,389L478.2,389c-3.3,0.4-6.3-1.9-6.7-5.2l-1.3-10.2c-0.4-3.3,1.9-6.3,5.2-6.7l0,0
					c3.3-0.4,6.3,1.9,6.7,5.2l1.3,10.2C483.8,385.6,481.5,388.6,478.2,389z"/>
			</g>
		</g>
		<g id="mão">
			<path class="st12" d="M533.1,449.2c-3.2,1.5-7.2,2.8-10.9,4c0,0,0,0,0,0c-0.8,0.3-1.6,0.5-2.4,0.8v0c-3.4,1.2-6.1,2.3-7.2,3.7
				c-0.4,0.5-0.2,0.3-0.8,1.1c-0.4,0.5-2.7,2.2-5.5,4.3c0,0-0.1,0-0.1,0.1c-5.4,3.9-12.8,9-12.8,9c-1.1,0.8-2,1.5-2.8,2.3
				c0,0,0,0,0,0c-4.2,4-4.8,7.7-6.6,10c0,0,0,0,0,0c-0.8,0.9-1.7,1.6-3.3,2c-4.8,1.2-10.3-1.7-14.6-5.7c-5.3-4.9-9-11.3-7.7-13.6
				c0.5-0.9,2.5-2.2,3.2-5.2c0.4-1.6,1.1-3.6-2.1-10c-1-2-1.7-4-2.2-6.2c-0.9-3.8-1-7.9-0.8-11.8c0-1.2,0.1-2.4,0.2-3.5
				c1.3-17.1,1-16.9,0.9-17.7c0-0.4-0.1-0.8-0.2-1.4c-1-4.7-3.9-14.5,1.2-14.9c0.7-0.1,1.6,0,2.7,0.4c5.1,1.7,7.7,8.3,9.3,15.2
				c1.4,5.9,2,12,2.7,15.5c0.3,1.5,1.1,2.9,1.7,2.9c1.5-0.1,0.8-8.7,5.3-19.6c0.9-2.2,0.8-1.5,1.8-4.1c4.5-10.6,3.6-15.9,8.9-23.5
				c0.4-0.6,0.7-1,1.3-1.8c4.5-5.8,7.3-9.4,10.2-9.2c1.9,0.2,3.9,2,4.5,4c1.1,3.5-2.4,5.7-6.5,13.4c-0.3,0.5-4.2,7.7-5.2,17.2
				c-0.6,5.5,0.2,6.1,0.5,6.2c1.1,0.5,2.8-2.4,5.9-5.1c4.3-3.7,5.9-2.5,11.5-5.8c3.4-2,5.5-4.7,8-7.6c0.4-0.5,0.9-0.9,1.5-1.3
				c1.9-1.3,4.5-1.8,6.3-0.1c2.4,2.3,1.8,7,0.2,9.5c-0.7,1.2-1.4,2.2-2.1,3.2c-2.8,3.7-5.9,6.2-10.3,8.8c-5.5,3.3-7.1,5.3-8.9,7.2
				c-2.5,2.6-4.1,4.3-3.7,5.2c0.9,1.7,9.9,0.9,16.9-4c3-2.1,4.9-4.4,7.1-5.6c1.1-0.6,2.2-0.9,3.5-0.9c0.5,0,2.6,0.2,3.7,1.7
				c2.9,4-0.2,7.8-3.6,10.6c-1.2,1-2.5,1.8-3.5,2.5c-3,1.9-6.2,3.4-9.4,4.9c-1.3,0.6-5.1,3-7,3.3c0.9,0.7,1.9,1.6,3,2.1
				c5,2.3,10.9-2.4,15.9-3.8c0.4-0.1,0.8-0.2,1.3-0.3c2.8-0.5,5.7,0.3,6.9,3.2C540.4,444.4,537.5,447.1,533.1,449.2z"/>
			<g id="Camada_3">
			</g>
			<path class="st3" d="M524.3,452c-0.2,0.1-0.9,0.5-2.1,1.3c0,0,0,0,0,0c-0.8,0.3-1.6,0.5-2.4,0.8v0c-3.4,1.2-6.1,2.3-7.2,3.7
				c-0.4,0.5-0.2,0.3-0.8,1.1c-0.4,0.5-2.7,2.2-5.5,4.3c0,0-0.1,0-0.1,0.1c-4.6,3-9,5.9-11.9,8.1c-1.7,1.3-2.8,2.2-3.7,3.1
				c0,0,0,0,0,0c-0.5,0.5-0.9,0.9-1.2,1.4c-2.8,3.6-3.2,6.8-5.4,8.5c0,0,0,0,0,0c-0.6,0.5-1.4,0.9-2.4,1.2
				c-4.8,1.2-10.3-1.7-14.6-5.7c6.4,2,8.5,1.5,9.1,0.6c1.7-2.6-6.3-10.2-4.7-12.1c0.7-0.8,2.1,0.3,5.4,0c5.9-0.5,11.6-3.8,15.6-8.1
				c1.8-2,3.6-4.3,4.4-6.9c1-3.1,0.8-7.5,3.3-9c1.2-0.8,2.6-0.6,3.7-0.4c4.6,0.6,6,4.6,10,6.9C515.8,451.9,519.1,452.9,524.3,452z"
				/>
		</g>
	</g>
	<path class="st5" d="M396.9,604c-17.5-13.7-12.6-40.4-11.3-44c4.4-12.3,12.5-22.7,20.5-33c17.4-22.3,34.8-44.5,52.3-66.8
		c13.5,8.3,26.9,16.5,40.4,24.8c-32,39.7-44.7,70.7-50.2,92.3c-2.1,8.2-5.8,25.4-19.1,31.6C418.9,613.9,405.5,610.7,396.9,604z"/>
</g>
<g id="Camada_24">
	<g>
		<path class="st26" d="M195.7,519.1"/>
		<g id="XMLID_1_">
			<path class="st27" d="M235.8,651.3c0-2-1-5-3-6c-22-11-38-26-54-44c-2-2-3-5-5-7c-5-7-10-14-9-23c6-5,11,2,15,5c6,7,13,13,22,14
				c2,0,4-3,3-5c-12-15-26-26-36-42c-5-8-9-18-4-26c1-1,4,0,5,0c7,4,12,9,19,12c3,1,6,0,8-2c1-3-1-6-2-9c-12-18-25-36-24-57
				c8-7,19,1,26,7c0,0,1,0,2,0c2-1,1-3,2-4c1-14-1-29,8-42c12-16,30-25,49-26c9,0,18,3,24,10c7,9,10,20,5,30c-3,6-7,11-11,16
				c-2,4-7,8-6,13c1,1,2,3,4,3c9-2,17-6,26-6c3,1,2,5,0,7c-13,15-27,26-39,42c-2,3-3,6-3,9c0,0,1,1,2,1c9-4,17-10,26-14
				c8-3,17-2,26-2c3,0,5,1,7,3c3,3,1,7-1,10c-10,11-22,20-32,31c-6,7-11,14-15,23c-1,2,0,5,0,8c1,2,0,6,5,3c12-6,23-16,37-14
				c2,1,4,2,5,5c0,3,1,6,0,8c-12,24-26,44-40,67c0,1,2,3,3,3c13-10,24-19,38-27c3-1,6-2,9,0c10,10,4,26-3,37c-10,13-20,23-32,34
				c-1,1-2,3-2,4l1,1c10-1,17-9,25-14c3-2,7-1,9,2c6,11-1,23-10,30c-27,22-55,41-86,55c-1-6-5-11-7-17c-2-4-5-8-7-13
				c-8-15-18-27-28-42c-2-3-3-6-2-9c0-7,9-8,15-8c10,1,16,9,23,15c2,1,4-1,3-4c-17-20-46-34-45-62c0-5,7-5,11-4c15,5,26,15,40,23
				C233.8,653.3,235.8,653.3,235.8,651.3L235.8,651.3z"/>
		</g>
		<g>
			<path class="st28" d="M153.8,675.3c-1-2-1-4-2-6c-16-16-24-36-36-55c-1-3-3-6-3-9c0-5,5-8,9-6c4,3,7,6,10,10c4,3,9,7,15,4
				c-1-7-6-12-10-18c-6-7-14-12-20-19c-2-3-5-6-3-11c11-5,21,4,32,5c2,0,4-2,4-3c-10-16-28-21-43-31c-2-2-6-5-2-7c10-4,20-2,30,1
				c0,0,1-1,2-1c-1-1-1-2-1-3c-10-11-29-23-18-39c16-22,44-15,63-1c11,9,14,22,15,35c0,5,4,8,9,7s7-6,12-7c6,5,4,14,1,21
				c0,1,0,2,0,3c-4,10-8,19-14,27c3,2-4,4,4,5c2,0,3-3,5-4c1-1,3,0,4-1c8-6,17-7,26-6c3,1,4,6,3,9c-7,24-30,35-46,53c-1,2-4,8,1,7
				c12,0,23-8,35-5c4,1,2,7,0,10c-14,18-33,27-47,44l1,2c1,0,3,0,4,0c13-6,27-11,41-16c2,0,5,1,7,2c6,7,1,17-4,24c-8,9-16,16-23,25
				c9,3,16-6,23-10c4-2,9-1,13,1s6,7,4,11c-12,19-27,35-33,56c-30-9-57-24-80-45c-5-6-12-11-14-19c-1-6,5-8,9-8c8,2,12,8,18,13
				c1,1,2,2,3,1c1-2-1-4-2-5c-9-8-17-15-25-24c-7-8-12-17-14-28c-1-5-2-13,5-15c14,4,20,18,30,28h2
				C153.8,677.3,153.8,676.3,153.8,675.3L153.8,675.3z"/>
		</g>
	</g>
	<g>
		<path class="st27" d="M812.6,658.2c0.9-4.6-3.4-8.7-6.1-11.9c-10.2-12.7-18.5-27.3-24.9-42.5c-2.1-4.9-4.3-9.8-6.2-14.8
			c-2.3-6.1-5.7-14.3-5.4-20.9c0.1-2.6,1.6-5.4,4-6.2c3.4-1.1,6.8,1.7,8.9,4.6c4.7,6.3,7.9,14.1,14.7,18.2c2.3,1.4,7.9,4.3,9.4,0.8
			c1-2.4-1.7-7.1-2.7-9.2c-3.6-8.1-8-15.9-12.8-23.3c-5.6-8.8-11.8-19.9-12.4-30.5c-0.1-2.1,0.1-4.5,1.6-6c3.8-3.7,11,1.4,14.2,3.6
			c4,2.7,14.8,12.4,19.9,10.4c7.7-3.1-3.8-16.9-6.1-20.7c-4.1-6.5-8.5-12.8-12.2-19.5c-7.3-13.4-10.1-20.2-7.5-23.1
			c3.2-3.5,13.3,0.2,15.9,1.1c10.4,3.8,13.5,9.8,16.2,8.7c5.1-2.2-6.8-23.4,0.9-40.6c6.4-14.1,25.2-25.1,44.6-22.3
			c21.1,3,35.6,21.4,37.2,37.2c1.8,18.9-15,32.5-9.6,39c5.3,6.4,23.5-3.9,27,0.8c5.2,7-22.9,31.5-26.9,35.5
			c-2.6,2.6-17.6,13.4-14.8,17.2c0.9,1.2,2.6,1.7,4.2,1.5c1.5-0.2,2.9-0.9,4.3-1.6c12.4-5.7,29-7.1,41.8-2.2
			c19.3,7.4-12.3,27.1-19,31.9c-11.8,8.4-25.6,15.1-36.2,25c-2.4,2.2-7.6,9.7-4.9,13c2,2.5,7.6-0.1,10-0.6c7.5-1.5,15-3.7,22.7-3.5
			c3.6,0.1,8,0.4,11.1,2.5c5,3.2,2.3,9.3-0.7,13.2c-2.3,3-5.3,5.4-8.3,7.8c-9.9,7.8-19.9,15.7-29.8,23.5
			c-6.6,5.2-13.4,9.7-19.7,15.2c-1.2,1-2.5,2.6-1.8,4c0.4,0.8,1.3,1.2,2.2,1.3c0.9,0,1.8-0.3,2.6-0.6c13-4.5,26.1-8.2,39.4-11.9
			c4.6-1.3,10.1-2.4,13.8,0.7c3.2,2.7,3.6,7.6,2.8,11.7c-2.3,11.6-11.4,20.6-21.1,27.3c-6.4,4.5-13.1,8.6-19.5,13.1
			c-1.8,1.3-7.6,3.8-8.1,6.1c-1.5,7.8,19.2-2.2,20.5-2.8c4.5-2.2,10.2-4.3,15-1.8c5.5,2.9,6.7,10.8,4.2,16.4c-3,6.5-9.3,10.2-15,14
			c-7.4,4.9-14.9,9.7-22.3,14.6c-3.7,2.4-43.6,29.1-44,28.6C806,767,788,743.5,773.5,718.1c-3.4-5.8-13-21.4-7.9-27.8
			c2.5-3.1,7.5-2.9,8.4-2.9c9,0.3,15.3,8.6,20.1,15.3c1.1,1.5,4.9,9.1,6.5,3.8c0.9-3.2-6.6-10.8-8.4-13.5
			c-8-11.3-16.1-22.8-20.7-35.9c-2.1-5.8-8.7-30.2,0.9-33.1c8.2-2.5,17.1,10.1,21.5,15.4c3.7,4.3,6.9,9,10.1,13.7
			C804.8,654.4,811.2,664.9,812.6,658.2z"/>
		<g>
			<path class="st28" d="M845.4,664.5c0-1,1-3,1-4c-7-25-5-49-5-74c0-2,1-4,3-6c3-2,7,0,9,2c4,8,4,20,13,24c1,0,2-1,2-1
				c3-7,0-13-1-20c-2-12-12-25-6-37c6-1,9,3,13,6c4,5,9,9,14,14c1,0,3,0,4,0c3-3,0-6-1-9c-4-11-10-21-16-31c-3-4-9-10-6-15
				c11,0,20,7,28,14h2c0-2,0-3,0-5c-5-13-12-34,5-41c23-9,46,10,55,31c5,13,1,26-3,38c-4,11,11,8,18,9c2,1,1,4,1,6
				c-5,11-14,19-24,24c-5,3-9,6-14,9c-1,1-3,3,2,6c13-3,27-1,37,8c1,5-2,9-6,12c-19,13-39,14-60,19c-3,1-5,3-7,5c-1,1,0,3,2,4
				c9,3,19,4,28,7c3,1,6,3,6,7c-1,7-9,8-15,10c-17,5-34,6-51,11c-1,0-2,2-2,3s1,2,1,2c15,1,29,3,44,5c2,1,5,2,6,4c6,12-9,19-18,23
				c-9,3-18,4-27,9c-1,1,0,2,1,3c9,3,17-2,26,0c7,2,11,9,9,15c-1,5-6,6-10,7c-1,0-1,2-2,2c-10,3-18,8-27,13c-1,1-2,2-3,3
				c-6,3-10,9-16,12c-5-4-8-9-12-13c-2-3-4-6-7-9c-13-19-23-37-30-58c-2-8-7-19,1-25c13-1,13,14,19,23c1,1,2,0,2-1
				c-6-17-13-33-12-51c0-3-1-7,0-10c2-4,1-9,4-13c2-1,2-4,4-5c3-1,7,0,9,3c5,11,5,23,9,34c0,1,0,2,2,2L845.4,664.5L845.4,664.5z"/>
		</g>
	</g>
</g>
</svg>
