<?xml version="1.0" encoding="utf-8"?>
<!-- Generator: Adobe Illustrator 22.0.1, SVG Export Plug-In . SVG Version: 6.00 Build 0)  -->
<svg version="1.1" id="Camada_1" xmlns="http://www.w3.org/2000/svg" xmlns:xlink="http://www.w3.org/1999/xlink" x="0px" y="0px"
	 viewBox="0 0 1080 1080" style="enable-background:new 0 0 1080 1080;" xml:space="preserve">
<style type="text/css">
	.st0{fill:#FFB096;}
	.st1{opacity:0.1;fill:#FFFFFF;enable-background:new    ;}
	.st2{opacity:0.57;fill:#FFFFFF;enable-background:new    ;}
</style>
<g id="Camada_4">
</g>
<g id="mão">
	<path class="st0" d="M341.6,403v119c-1.7-1.3-3.1-2.4-4-2.9c-10.2-6.7-21.5-13.3-32.1-20.6c-10-6.8-19.4-14.3-26.8-23.2
		c-3-3.5-24.3-28.8-16.7-58c0.9-3.5,6.5-24.6,25.3-32c14.8-5.8,29,0.1,32,1.3c4.6,1.9,8.5,4.6,13.6,8.9
		C335.5,397.6,338.3,400.1,341.6,403z"/>
	<path class="st0" d="M341.6,564.1v114.1c-16.2-8.4-32.6-16.5-48.6-25.2c-0.6-0.3-1.1-0.6-1.7-0.9c-21.7-11.7-40.8-36.9-42-63.4
		c-0.4-8.8,1.2-18.2,5.6-28.2c6.8-15.2,22.7-18.9,26-19.6c3.5-0.8,6.9-1.1,10.2-0.9c7.5,0.4,16.8,4.7,16.8,4.7
		c0.9,0.4,1.8,0.9,2.7,1.3c8.1,4.2,15.5,9.4,23.3,13.9C336.5,561.5,339.1,562.8,341.6,564.1z"/>
	<path class="st0" d="M341.6,717.4v104.4c-14.8-3.8-31.2-8-44.1-13c-27.5-10.9-48.3-25.7-51.3-48.7c0-0.3-0.1-0.5-0.1-0.8
		c0-0.3,0-0.5-0.1-0.8c0-0.3-0.1-0.7-0.1-1c0-0.3,0-0.7-0.1-1c0-0.8-0.1-1.6-0.1-2.4v-0.2c0-0.8,0-1.5,0.1-2.3c0-0.2,0-0.5,0-0.7
		c0-0.4,0.1-0.8,0.1-1.2c0.2-1.6,0.4-3.3,0.7-5c0.2-1.3,0.5-2.6,0.8-3.9c6.3-26.1,27.1-36,48.2-35c3.2,0.1,6.4,0.6,9.7,1.2
		c0,0,0,0,0.1,0h0c5.4,1,11.4,2.5,17.6,4.3C329.3,713.1,335.7,715.2,341.6,717.4z"/>
	<path class="st0" d="M692,885c-8,4.2-17.1,6.5-26.7,6.5H483.6c0,0,0-0.1-0.1-0.1h181.9C675,891.4,684,889.1,692,885z"/>
	<path class="st0" d="M702.6,878c-1.4,1.2-2.9,2.3-4.5,3.4C699.7,880.3,701.2,879.2,702.6,878z"/>
	<path class="st0" d="M711.1,869.4c-0.3,0.3-0.5,0.6-0.8,1L711.1,869.4L711.1,869.4z"/>
	<path class="st0" d="M1147,1140.7c-3.5,29.2-18.2,57.8-41.4,86c-36.9,44.9-105.4,97.2-161.4,78.9c-23.9-7.8-25.5-21.7-81.2-76.6
		c-18.8-18.4-39.2-36-80-71c-121-103.8-172.2-111-217.2-152.3c-12.8-11.8-20.2-22.2-31.3-36.2c-14-17.7-23.8-32.1-31.2-44.5
		c-3.5-5.7-6.6-10.8-9.2-15.5h186.1c32.3,0,58.5-26.2,58.5-58.5V420.1c0.1-0.3,0.1-0.5,0.2-0.8c0.1-0.2,0.1-0.5,0.2-0.7
		c0.2-0.8,0.5-1.6,0.7-2.3c0.4-1.4,0.9-2.8,1.3-4.1c0.3-0.9,0.7-1.9,1-2.8c0.3-1,0.7-1.9,1.1-2.9c0.2-0.5,0.4-1,0.5-1.4
		c0.3-0.8,0.6-1.5,0.9-2.3c0.3-0.6,0.5-1.2,0.8-1.8c0.2-0.6,0.5-1.1,0.7-1.7c0.2-0.5,0.5-1,0.7-1.6c0.3-0.7,0.6-1.3,0.9-2
		c0.4-0.9,0.8-1.7,1.3-2.6c0.2-0.4,0.4-0.7,0.6-1.1c0.2-0.4,0.4-0.7,0.6-1.1c0.2-0.4,0.4-0.7,0.6-1.1c0.3-0.6,0.6-1.1,0.9-1.7
		c0.5-0.8,0.9-1.7,1.4-2.5c0.1-0.3,0.3-0.5,0.4-0.7c0.1-0.1,0.1-0.2,0.2-0.3c0.2-0.3,0.4-0.7,0.6-1c0.1-0.1,0.1-0.2,0.2-0.3
		c0.4-0.7,0.9-1.4,1.3-2c0.4-0.5,0.7-1.1,1.1-1.6c0.2-0.3,0.5-0.7,0.7-1c0.4-0.5,0.8-1,1.2-1.6c0.4-0.5,0.8-1,1.2-1.6
		c0.6-0.7,1.1-1.4,1.7-2.1c0.4-0.4,0.7-0.8,1.1-1.3c0.1-0.1,0.2-0.2,0.3-0.3c0.4-0.4,0.7-0.8,1-1.2c0,0,0,0,0.1-0.1
		c0.1-0.2,0.3-0.3,0.4-0.5c0.2-0.3,0.5-0.5,0.7-0.8c0.3-0.3,0.6-0.6,1-1c0.5-0.5,1-1,1.6-1.5c0.3-0.3,0.6-0.5,0.9-0.8
		s0.6-0.5,0.8-0.7c0.6-0.5,1.2-1,1.8-1.5c0.6-0.5,1.2-0.9,1.8-1.3c0.3-0.2,0.6-0.5,0.9-0.7c0.3-0.2,0.6-0.4,0.9-0.7
		c0.6-0.4,1.3-0.8,1.9-1.2c0.5-0.3,1-0.6,1.6-0.9c0.2-0.2,0.5-0.3,0.7-0.4c0.5-0.3,1.1-0.6,1.6-0.9c0.3-0.1,0.5-0.3,0.8-0.4
		c0.4-0.2,0.8-0.4,1.2-0.6c7.5-3.6,13.9-5.3,19.2-5.5c38-1.6,25.2,73.7,22.3,109c-0.3,4-0.5,7.5-0.5,10.4c0,6.3-2.5,5,23,130
		c1.7,8.5,3.4,17.2,4.8,26c4.7,28.8,7.4,58.8,4.6,88c-1.5,16.3-4.8,32.2-10.3,47.6c-6.7,18.4-10.9,35.2-10.9,50.6
		c0,22.7,9,42.4,32.8,60.3c39.3,29.5,81.7,56,125.1,79.8c43.4,23.8,87.5,49.1,119.2,87.1c14.6,17.5,24.4,34.8,30,52
		c3.4,10.4,5.2,20.7,5.6,30.9C1147.9,1128.8,1147.7,1134.8,1147,1140.7z"/>
	<g id="Camada_3">
	</g>
	<path class="st1" d="M314.1,492c-3.1,2.6-5.9,4.8-8.6,6.5c-10-6.8-19.4-14.3-26.8-23.2c-3-3.5-24.3-28.8-16.7-58
		c0.9-3.5,6.5-24.6,25.3-32c14.8-5.8,29,0.1,32,1.3c4.6,1.9,8.5,4.6,13.6,8.9C344.1,426.2,339.5,470.6,314.1,492z"/>
	<path class="st1" d="M293,653.1c-0.6-0.3-1.1-0.6-1.7-0.9c-21.7-11.7-40.8-36.9-42-63.4c-0.4-8.8,1.2-18.2,5.6-28.2
		c6.8-15.2,22.7-18.9,26-19.6c3.5-0.8,6.9-1.1,10.2-0.9c7.5,0.4,16.8,4.7,16.8,4.7c0.9,0.4,1.8,0.9,2.7,1.3
		C323.7,579,319.8,628,293,653.1z"/>
	<path class="st1" d="M297.5,808.6c-34.5-13.6-58.4-33.5-50-68c6.3-26.1,27.1-36,48.2-35c3.2,0.1,6.4,0.6,9.7,1.2l0,0
		C322.5,733.5,321.6,782.9,297.5,808.6z"/>
	<path class="st1" d="M1147,1140.7c-10.9-5-23.1-13.4-32-19.7C893.6,966,782.9,888.5,770.6,786.1c-9-74.9,16.3-77.2,14.4-160.1
		c-1.3-57.4-27.9-90.3-46.3-124.5v-82.3c5.5-18.7,13.3-35,24.1-47.1c0.1-0.1,0.2-0.2,0.3-0.3c0.4-0.4,0.7-0.8,1-1.2c0,0,0,0,0.1-0.1
		c5.4-5.7,11.5-10.4,18.5-13.7c7.5-3.6,13.9-5.3,19.2-5.5h0.1c0.2,0,0.4,0,0.6,0c0.5,0,1,0,1.5,0c35.4,1.3,23,74.4,20.2,109
		c-0.3,4-0.5,7.5-0.5,10.4c0,6.3-2.5,5,23,130c1.7,8.5,3.4,17.2,4.8,26c-1.3,29.6-0.3,59.3,4.6,88c-1.5,16.3-4.8,32.2-10.3,47.6
		c-6.6,18.4-10.9,35.2-10.9,50.6c0,22.7,9,42.4,32.8,60.3c39.3,29.5,81.7,56,125.1,79.8c43.4,23.8,87.5,49.1,119.2,87.1
		c14.6,17.5,24.4,34.8,30,52c3.5,10.3,5.3,20.5,5.7,30.7C1147.9,1128.8,1147.7,1134.8,1147,1140.7z"/>
	<path class="st2" d="M824.2,460.4c-7.4-5.5-14.8-14.4-19.2-21.4c-13.3-21.1-10.4-43.4-8-62c0.9-6.9,2.6-16.4,5-25.6
		C840,349.8,827.2,425.1,824.2,460.4z"/>
</g>
<g id="celular">
	<g>
		<path d="M630.9,213.5c0.1-0.1,0.2-0.2,0.3-0.3c0,0,0.1-0.1,0.1-0.1C631.2,213.2,631.1,213.4,630.9,213.5z M636.1,208.5
			c-0.4,0.5-0.8,0.9-1.2,1.4c0.2-0.3,0.5-0.5,0.7-0.8C635.8,208.9,636,208.6,636.1,208.5c0.1-0.1,0.2-0.2,0.2-0.3
			C636.3,208.3,636.2,208.4,636.1,208.5z M645,191.4c0,0.1,0,0.2-0.1,0.3c0,0.2-0.1,0.3-0.1,0.5c0,0.1-0.1,0.3-0.1,0.4
			c-0.1,0.2-0.1,0.4-0.2,0.7c0,0,0,0.1-0.1,0.1c0,0.2-0.1,0.4-0.2,0.5c-0.3,0.9-0.6,1.7-0.9,2.6c-0.1,0.3-0.2,0.5-0.3,0.8
			c0,0.1-0.1,0.2-0.1,0.2c-0.2,0.4-0.3,0.8-0.5,1.3c-0.5,1-1,2-1.5,2.9c-0.1,0.2-0.2,0.4-0.3,0.5c-0.5,0.8-1,1.7-1.6,2.5
			c-0.1,0.2-0.2,0.3-0.4,0.5c0,0,0,0,0,0c-0.2,0.3-0.4,0.6-0.6,0.8c0,0-0.1,0.1-0.1,0.1c-0.1,0.2-0.2,0.3-0.3,0.5
			c0.1-0.1,0.1-0.2,0.2-0.3c0.6-0.7,1.1-1.4,1.6-2.2c0.3-0.5,0.6-1,0.9-1.5c0.3-0.5,0.5-0.9,0.8-1.4l0,0c0.1-0.1,0.1-0.2,0.2-0.3
			c0.1-0.3,0.3-0.5,0.4-0.8c0.3-0.5,0.5-0.9,0.7-1.4c0.2-0.5,0.4-1,0.7-1.5c0.2-0.5,0.4-1,0.6-1.4c0.1-0.3,0.2-0.5,0.3-0.8
			c0.1-0.4,0.3-0.8,0.4-1.2c0,0,0-0.1,0-0.1c0.1-0.3,0.2-0.5,0.2-0.8c0,0,0-0.1,0-0.1c0.2-0.6,0.3-1.2,0.5-1.8
			c0-0.2,0.1-0.4,0.1-0.6C645.1,190.8,645,191.1,645,191.4z M645.3,190.2c0,0.1,0,0.2,0,0.3c0-0.2,0.1-0.3,0.1-0.5l0,0c0,0,0,0,0,0
			c0,0,0,0,0,0c0-0.1,0-0.1,0-0.2c0,0,0,0,0,0c0-0.1,0-0.2,0-0.2C645.3,189.7,645.3,190,645.3,190.2z M645.4,189.5
			c0-0.1,0-0.1,0-0.2c0-0.1,0-0.2,0.1-0.3C645.5,189.1,645.4,189.3,645.4,189.5z M645.4,189.5c0-0.1,0-0.1,0-0.2
			c0-0.1,0-0.2,0.1-0.3C645.5,189.1,645.4,189.3,645.4,189.5z M645.3,190.2c0,0.1,0,0.2,0,0.3c0-0.2,0.1-0.3,0.1-0.5l0,0
			c0,0,0,0,0,0c0,0,0,0,0,0c0-0.1,0-0.1,0-0.2c0,0,0,0,0,0c0-0.1,0-0.2,0-0.2C645.3,189.7,645.3,190,645.3,190.2z M645,191.4
			c0,0.1,0,0.2-0.1,0.3c0,0.2-0.1,0.3-0.1,0.5c0,0.1-0.1,0.3-0.1,0.4c-0.1,0.2-0.1,0.4-0.2,0.7c0,0,0,0.1-0.1,0.1
			c0,0.2-0.1,0.4-0.2,0.5c-0.3,0.9-0.6,1.7-0.9,2.6c-0.1,0.3-0.2,0.5-0.3,0.8c0,0.1-0.1,0.2-0.1,0.2c-0.2,0.4-0.3,0.8-0.5,1.3
			c-0.5,1-1,2-1.5,2.9c-0.1,0.2-0.2,0.4-0.3,0.5c-0.5,0.8-1,1.7-1.6,2.5c-0.1,0.2-0.2,0.3-0.4,0.5c0,0,0,0,0,0
			c-0.2,0.3-0.4,0.6-0.6,0.8c0,0-0.1,0.1-0.1,0.1c0,0.1-0.1,0.1-0.1,0.2c0.6-0.7,1.1-1.4,1.6-2.2c0.3-0.5,0.6-1,0.9-1.5
			c0.3-0.5,0.5-0.9,0.8-1.4l0,0c0.1-0.1,0.1-0.2,0.2-0.3c0.1-0.3,0.3-0.5,0.4-0.8c0.3-0.5,0.5-0.9,0.7-1.4c0.2-0.5,0.4-1,0.7-1.5
			c0.2-0.5,0.4-1,0.6-1.4c0.1-0.3,0.2-0.5,0.3-0.8c0.1-0.4,0.3-0.8,0.4-1.2c0,0,0-0.1,0-0.1c0.1-0.3,0.2-0.5,0.2-0.8
			c0,0,0-0.1,0-0.1c0.2-0.6,0.3-1.2,0.5-1.8c0-0.2,0.1-0.4,0.1-0.6C645.1,190.8,645,191.1,645,191.4z M645.4,189.5
			c0-0.1,0-0.1,0-0.2c0-0.1,0-0.2,0.1-0.3C645.5,189.1,645.4,189.3,645.4,189.5z M645,191.4c0,0.1,0,0.2-0.1,0.3
			c0,0.2-0.1,0.3-0.1,0.5c0,0.1-0.1,0.3-0.1,0.4c-0.1,0.2-0.1,0.4-0.2,0.7c0,0,0,0.1-0.1,0.1c0,0.2-0.1,0.4-0.2,0.5
			c-0.3,0.9-0.6,1.7-0.9,2.6c-0.1,0.3-0.2,0.5-0.3,0.8c0,0.1-0.1,0.2-0.1,0.2c-0.2,0.4-0.3,0.8-0.5,1.3c-0.5,1-1,2-1.5,2.9
			c-0.1,0.2-0.2,0.4-0.3,0.5c-0.5,0.8-1,1.7-1.6,2.5c-0.1,0.2-0.2,0.3-0.4,0.5c0,0,0,0,0,0c-0.2,0.3-0.4,0.6-0.6,0.8
			c0,0-0.1,0.1-0.1,0.1c-0.1,0.2-0.2,0.3-0.3,0.5c0.1-0.1,0.1-0.2,0.2-0.3c0.6-0.7,1.1-1.4,1.6-2.2c0.3-0.5,0.6-1,0.9-1.5
			c0.3-0.5,0.5-0.9,0.8-1.4l0,0c0.1-0.1,0.1-0.2,0.2-0.3c0.1-0.3,0.3-0.5,0.4-0.8c0.3-0.5,0.5-0.9,0.7-1.4c0.2-0.5,0.4-1,0.7-1.5
			c0.2-0.5,0.4-1,0.6-1.4c0.1-0.3,0.2-0.5,0.3-0.8c0.1-0.4,0.3-0.8,0.4-1.2c0,0,0-0.1,0-0.1c0.1-0.3,0.2-0.5,0.2-0.8
			c0,0,0-0.1,0-0.1c0.2-0.6,0.3-1.2,0.5-1.8c0-0.2,0.1-0.4,0.1-0.6c0-0.2,0.1-0.3,0.1-0.5l0,0c0,0,0,0,0,0c0,0,0,0,0,0
			c0-0.1,0-0.1,0-0.2c0,0,0,0,0,0c0-0.1,0-0.2,0-0.2c-0.1,0.2-0.1,0.5-0.2,0.7C645.2,190.6,645.1,191,645,191.4z M637.5,206.8
			c0,0,0.1-0.1,0.1-0.1C637.5,206.8,637.4,206.8,637.5,206.8C637.4,206.9,637.4,206.9,637.5,206.8z M634.8,209.8
			c0.2-0.3,0.5-0.5,0.7-0.8c0.2-0.2,0.4-0.5,0.6-0.7c0-0.1,0.1-0.1,0.2-0.2c-0.1,0.1-0.2,0.2-0.2,0.3
			C635.7,208.9,635.3,209.4,634.8,209.8z M631.3,213.2c0,0,0.1-0.1,0.1-0.1c-0.2,0.1-0.3,0.3-0.5,0.4
			C631,213.4,631.2,213.3,631.3,213.2z M645,191.4c0,0.1,0,0.2-0.1,0.3c0,0.2-0.1,0.3-0.1,0.5c0,0.1-0.1,0.3-0.1,0.4
			c-0.1,0.2-0.1,0.4-0.2,0.7c0,0,0,0.1-0.1,0.1c0,0.2-0.1,0.4-0.2,0.5c-0.3,0.9-0.6,1.7-0.9,2.6c-0.1,0.3-0.2,0.5-0.3,0.8
			c0,0.1-0.1,0.2-0.1,0.2c-0.2,0.4-0.3,0.8-0.5,1.3c-0.5,1-1,2-1.5,2.9c-0.1,0.2-0.2,0.4-0.3,0.5c-0.5,0.8-1,1.7-1.6,2.5
			c-0.1,0.2-0.2,0.3-0.4,0.5c0,0,0,0,0,0c-0.2,0.3-0.4,0.6-0.6,0.8c0,0-0.1,0.1-0.1,0.1c-0.1,0.2-0.2,0.3-0.3,0.5
			c0.1-0.1,0.1-0.2,0.2-0.3c0.6-0.7,1.1-1.4,1.6-2.2c0.3-0.5,0.6-1,0.9-1.5c0.3-0.5,0.5-0.9,0.8-1.4l0,0c0.1-0.1,0.1-0.2,0.2-0.3
			c0.1-0.3,0.3-0.5,0.4-0.8c0.3-0.5,0.5-0.9,0.7-1.4c0.2-0.5,0.4-1,0.7-1.5c0.2-0.5,0.4-1,0.6-1.4c0.1-0.3,0.2-0.5,0.3-0.8
			c0.1-0.4,0.3-0.8,0.4-1.2c0,0,0-0.1,0-0.1c0.1-0.3,0.2-0.5,0.2-0.8c0,0,0-0.1,0-0.1c0.2-0.6,0.3-1.2,0.5-1.8
			c0-0.2,0.1-0.4,0.1-0.6C645.1,190.8,645,191.1,645,191.4z M645.3,190.2c0,0.1,0,0.2,0,0.3c0-0.2,0.1-0.3,0.1-0.5l0,0c0,0,0,0,0,0
			c0,0,0,0,0,0c0-0.1,0-0.1,0-0.2c0,0,0,0,0,0c0-0.1,0-0.2,0-0.2C645.3,189.7,645.3,190,645.3,190.2z M645.4,189.5
			c0-0.1,0-0.1,0-0.2c0-0.1,0-0.2,0.1-0.3C645.5,189.1,645.4,189.3,645.4,189.5z"/>
		<path d="M680.2,170.5H400.1c-32.3,0-58.5,26.2-58.5,58.5v622c0,32.3,26.2,58.5,58.5,58.5h280.1c32.3,0,58.5-26.2,58.5-58.5V229
			C738.7,196.7,712.5,170.5,680.2,170.5z M723.8,833c0,12.5-3.9,24-10.5,33.5c-0.2,0.3-0.4,0.6-0.7,0.9c-0.2,0.3-0.4,0.6-0.7,0.9
			c-0.3,0.3-0.5,0.7-0.8,1c0,0,0,0,0,0c-0.3,0.3-0.5,0.6-0.8,1c-0.3,0.3-0.5,0.7-0.8,1c-0.3,0.3-0.6,0.7-0.9,1
			c-1.2,1.3-2.5,2.6-3.9,3.9c-0.3,0.3-0.7,0.6-1,0.9c-0.3,0.3-0.7,0.6-1.1,0.9c-1.4,1.2-2.9,2.3-4.5,3.4c-0.4,0.3-0.8,0.5-1.2,0.8
			c-0.4,0.3-0.8,0.5-1.2,0.8c-0.4,0.2-0.8,0.5-1.2,0.7c-0.4,0.2-0.8,0.5-1.2,0.7c-0.4,0.2-0.8,0.5-1.3,0.7c-8,4.2-17.1,6.5-26.7,6.5
			H415c-32.3,0-58.5-26.2-58.5-58.5V246.9c0-32.3,26.2-58.5,58.5-58.5h18.8c0,0,0,0.1,0,0.1c0,0.3,0.1,0.7,0.2,1
			c0.1,0.3,0.1,0.7,0.2,1c0.1,0.4,0.2,0.9,0.3,1.3c0,0.2,0.1,0.4,0.2,0.7c0.1,0.5,0.3,1,0.4,1.4c0.2,0.5,0.3,1.1,0.5,1.6
			c0,0,0,0,0,0.1c0.2,0.6,0.4,1.1,0.6,1.7c0.2,0.6,0.5,1.2,0.8,1.8c0.2,0.5,0.5,1,0.7,1.4c0,0,0,0,0,0.1c0.3,0.5,0.5,1,0.8,1.5
			c0.3,0.6,0.7,1.2,1.1,1.8c0.2,0.3,0.4,0.6,0.6,0.9c0.2,0.3,0.4,0.6,0.6,0.8c0.2,0.3,0.4,0.6,0.6,0.8c0.2,0.3,0.4,0.6,0.6,0.8
			c0.2,0.3,0.4,0.5,0.6,0.8c0.2,0.3,0.4,0.5,0.7,0.8c0.3,0.3,0.5,0.6,0.8,0.9c0.8,0.8,1.6,1.7,2.5,2.4c0.3,0.2,0.5,0.5,0.8,0.7
			c0.9,0.8,1.9,1.6,2.9,2.3c0.5,0.3,1,0.7,1.5,1c0.3,0.2,0.5,0.3,0.8,0.5c0.2,0.2,0.5,0.3,0.7,0.4c0.5,0.3,1,0.6,1.5,0.9
			c2.1,1.1,4.3,2,6.5,2.8c0.1,0,0.3,0.1,0.4,0.1c0.3,0.1,0.6,0.2,0.9,0.3c0.2,0.1,0.5,0.1,0.7,0.2c0.4,0.1,0.7,0.2,1,0.3
			c0.3,0.1,0.7,0.2,1,0.2c0.1,0,0.2,0,0.3,0.1c0.6,0.1,1.2,0.2,1.8,0.3c0,0,0.1,0,0.2,0c0.4,0.1,0.8,0.1,1.1,0.2
			c0.4,0,0.8,0.1,1.2,0.1c0.5,0.1,1,0.1,1.5,0.1c0.4,0,0.8,0,1.1,0.1c0.5,0,1,0,1.5,0h131c0.5,0,1,0,1.5,0c0.4,0,0.8,0,1.2-0.1
			c0.3,0,0.6,0,0.8-0.1c0.4,0,0.8-0.1,1.2-0.1c0.6-0.1,1.2-0.2,1.8-0.3c0.5-0.1,0.9-0.2,1.4-0.3c0.1,0,0.3,0,0.4-0.1
			c0.4-0.1,0.9-0.2,1.3-0.3c0.3-0.1,0.5-0.1,0.8-0.2c0.3-0.1,0.7-0.2,1-0.3c0.4-0.1,0.8-0.3,1.3-0.4c0.6-0.2,1.1-0.4,1.7-0.6
			c0.3-0.1,0.6-0.2,0.9-0.4c0.2-0.1,0.4-0.2,0.6-0.2c0.2-0.1,0.4-0.2,0.6-0.3c0.5-0.2,0.9-0.4,1.4-0.6c0.2-0.1,0.4-0.2,0.6-0.3
			c0.2-0.1,0.4-0.2,0.5-0.3c0.2-0.1,0.4-0.2,0.6-0.3c0.3-0.1,0.5-0.3,0.7-0.4c0,0,0,0,0,0c0,0,0,0,0,0c0.4-0.3,0.9-0.5,1.3-0.8
			c0.3-0.2,0.7-0.4,1-0.6c0.5-0.3,1-0.7,1.5-1c0.2-0.1,0.4-0.3,0.6-0.4c0.3-0.2,0.5-0.4,0.8-0.6c0.1-0.1,0.2-0.1,0.3-0.2
			c0.2-0.1,0.3-0.3,0.5-0.4c0.2-0.2,0.5-0.4,0.7-0.6c0.3-0.2,0.5-0.5,0.8-0.7c0,0,0,0,0,0l0.6-0.6c0,0,0,0,0,0c0,0,0.1-0.1,0.1-0.1
			c0,0,0.1-0.1,0.1-0.1c0,0,0,0,0.1,0c0.1-0.1,0.1-0.2,0.2-0.2c0.1-0.1,0.2-0.2,0.2-0.2c0.2-0.2,0.4-0.4,0.6-0.6
			c0.4-0.4,0.8-0.9,1.2-1.4c0.1-0.1,0.2-0.2,0.2-0.3c0,0,0,0,0-0.1c0.1-0.2,0.3-0.3,0.4-0.5c0.1-0.2,0.3-0.3,0.4-0.5
			c0.1-0.1,0.2-0.2,0.2-0.3c0.1-0.1,0.1-0.2,0.2-0.2c0,0,0,0,0,0c0.1-0.2,0.2-0.3,0.3-0.5c0,0,0.1-0.1,0.1-0.1
			c0.2-0.3,0.4-0.5,0.6-0.8c0,0,0,0,0,0c0.1-0.2,0.2-0.3,0.4-0.5c0.6-0.8,1.1-1.6,1.6-2.5c0.1-0.2,0.2-0.3,0.3-0.5
			c0.5-1,1-1.9,1.5-2.9c0.2-0.4,0.4-0.8,0.5-1.3c0-0.1,0.1-0.2,0.1-0.2c0.1-0.3,0.2-0.5,0.3-0.8c0.3-0.9,0.6-1.7,0.9-2.6
			c0.1-0.2,0.1-0.3,0.2-0.5c0,0,0-0.1,0.1-0.1c0.1-0.2,0.1-0.4,0.2-0.7c0-0.1,0.1-0.3,0.1-0.4c0-0.2,0.1-0.3,0.1-0.5
			c0-0.1,0.1-0.2,0.1-0.3c0.1-0.4,0.2-0.8,0.3-1.2c0-0.2,0.1-0.5,0.2-0.7c0-0.2,0.1-0.3,0.1-0.5c0-0.1,0-0.2,0.1-0.3
			c0,0,0-0.1,0-0.1c0,0,0-0.1,0-0.1h19.7c32.3,0,58.5,26.2,58.5,58.5V833z"/>
		<path d="M711.1,869.4c-0.3,0.3-0.5,0.6-0.8,1L711.1,869.4L711.1,869.4z"/>
		<path d="M645.6,188.5c0,0.3-0.1,0.5-0.2,0.8c0,0.1,0,0.3-0.1,0.4c0,0,0,0,0,0c0,0,0,0.1,0,0.2c0,0,0,0,0,0c0,0,0,0,0,0l0,0
			c-0.1,0.4-0.2,0.8-0.3,1.1c-0.1,0.6-0.3,1.2-0.5,1.8c0,0,0,0.1,0,0.1c-0.1,0.3-0.2,0.5-0.2,0.8c0,0,0,0.1,0,0.1
			c-0.1,0.4-0.3,0.8-0.4,1.2c-0.1,0.3-0.2,0.6-0.3,0.8c-0.2,0.5-0.4,1-0.6,1.4c-0.2,0.5-0.4,1-0.7,1.5c-0.2,0.5-0.4,1-0.7,1.4
			c-0.1,0.3-0.3,0.5-0.4,0.8c0,0.1-0.1,0.2-0.2,0.3l0,0c-0.3,0.5-0.5,0.9-0.8,1.4c-0.3,0.5-0.6,1-0.9,1.5
			c-7.3,11.1-19.9,18.5-34.2,18.5h-131c-20.3,0-37.2-14.8-40.4-34.2h0c0,0.3,0.1,0.7,0.2,1c0.1,0.3,0.1,0.7,0.2,1
			c0.1,0.4,0.2,0.9,0.3,1.3c0,0.2,0.1,0.4,0.2,0.7c0.1,0.5,0.3,1,0.4,1.4c0.2,0.5,0.3,1.1,0.5,1.6c0,0,0,0,0,0.1
			c0.2,0.6,0.4,1.1,0.6,1.7c0.2,0.6,0.5,1.2,0.8,1.8c0.2,0.5,0.5,1,0.7,1.4c0,0,0,0,0,0.1c0.3,0.5,0.5,1,0.8,1.5
			c0.3,0.6,0.7,1.2,1.1,1.8c0.2,0.3,0.4,0.6,0.6,0.9c0.2,0.3,0.4,0.6,0.6,0.8c0.2,0.3,0.4,0.6,0.6,0.8c0.2,0.3,0.4,0.6,0.6,0.8
			c0.2,0.3,0.4,0.5,0.6,0.8c0.2,0.3,0.4,0.5,0.7,0.8c0.3,0.3,0.5,0.6,0.8,0.9c0.8,0.8,1.6,1.7,2.5,2.4c0.3,0.2,0.5,0.5,0.8,0.7
			c0.9,0.8,1.9,1.6,2.9,2.3c0.5,0.3,1,0.7,1.5,1c0.3,0.2,0.5,0.3,0.8,0.5c0.2,0.2,0.5,0.3,0.7,0.4c0.5,0.3,1,0.6,1.5,0.9
			c2.1,1.1,4.3,2,6.5,2.8c0.1,0,0.3,0.1,0.4,0.1c0.3,0.1,0.6,0.2,0.9,0.3c0.2,0.1,0.5,0.1,0.7,0.2c0.4,0.1,0.7,0.2,1,0.3
			c0.3,0.1,0.7,0.2,1,0.2c0.1,0,0.2,0,0.3,0.1c0.6,0.1,1.2,0.2,1.8,0.3c0,0,0.1,0,0.2,0c0.4,0.1,0.8,0.1,1.1,0.2
			c0.4,0,0.8,0.1,1.2,0.1c0.5,0.1,1,0.1,1.5,0.1c0.4,0,0.8,0,1.1,0.1c0.5,0,1,0,1.5,0h131c0.5,0,1,0,1.5,0c0.4,0,0.8,0,1.2-0.1
			c0.3,0,0.6,0,0.8-0.1c0.4,0,0.8-0.1,1.2-0.1c0.6-0.1,1.2-0.2,1.8-0.3c0.5-0.1,0.9-0.2,1.4-0.3c0.1,0,0.3,0,0.4-0.1
			c0.4-0.1,0.9-0.2,1.3-0.3c0.3-0.1,0.5-0.1,0.8-0.2c0.3-0.1,0.7-0.2,1-0.3c0.4-0.1,0.8-0.3,1.3-0.4c0.6-0.2,1.1-0.4,1.7-0.6
			c0.3-0.1,0.6-0.2,0.9-0.4c0.2-0.1,0.4-0.2,0.6-0.2c0.2-0.1,0.4-0.2,0.6-0.3c0.5-0.2,0.9-0.4,1.4-0.6c0.2-0.1,0.4-0.2,0.6-0.3
			c0.2-0.1,0.4-0.2,0.5-0.3c0.2-0.1,0.4-0.2,0.6-0.3c0.3-0.1,0.5-0.3,0.7-0.4c0,0,0,0,0,0c0,0,0,0,0,0c0.4-0.3,0.9-0.5,1.3-0.8
			c0.3-0.2,0.7-0.4,1-0.6c0.5-0.3,1-0.7,1.5-1c0.2-0.1,0.4-0.3,0.6-0.4c0.3-0.2,0.5-0.4,0.8-0.6c0.1-0.1,0.2-0.1,0.3-0.2
			c0.2-0.1,0.3-0.3,0.5-0.4c0.2-0.2,0.5-0.4,0.7-0.6c0.3-0.2,0.5-0.5,0.8-0.7c0,0,0,0,0,0l0.6-0.6c0,0,0,0,0,0c0,0,0.1-0.1,0.1-0.1
			c0,0,0.1-0.1,0.1-0.1c0,0,0,0,0.1,0c0.1-0.1,0.1-0.2,0.2-0.2c0.1-0.1,0.2-0.2,0.2-0.2c0.2-0.2,0.4-0.4,0.6-0.6
			c0.4-0.4,0.8-0.9,1.2-1.4c0.1-0.1,0.2-0.2,0.2-0.3c0,0,0,0,0-0.1c0.1-0.2,0.3-0.3,0.4-0.5c0.1-0.2,0.3-0.3,0.4-0.5
			c0.1-0.1,0.2-0.2,0.2-0.3c0.1-0.1,0.1-0.2,0.2-0.2c0,0,0,0,0,0c0.1-0.2,0.2-0.3,0.3-0.5c0,0,0.1-0.1,0.1-0.1
			c0.2-0.3,0.4-0.5,0.6-0.8c0,0,0,0,0,0c0.1-0.2,0.2-0.3,0.4-0.5c0.6-0.8,1.1-1.6,1.6-2.5c0.1-0.2,0.2-0.3,0.3-0.5
			c0.5-1,1-1.9,1.5-2.9c0.2-0.4,0.4-0.8,0.5-1.3c0-0.1,0.1-0.2,0.1-0.2c0.1-0.3,0.2-0.5,0.3-0.8c0.3-0.9,0.6-1.7,0.9-2.6
			c0.1-0.2,0.1-0.3,0.2-0.5c0,0,0-0.1,0.1-0.1c0.1-0.2,0.1-0.4,0.2-0.7c0-0.1,0.1-0.3,0.1-0.4c0-0.2,0.1-0.3,0.1-0.5
			c0-0.1,0.1-0.2,0.1-0.3c0.1-0.4,0.2-0.8,0.3-1.2c0-0.2,0.1-0.5,0.2-0.7c0-0.2,0.1-0.3,0.1-0.5c0-0.1,0-0.2,0.1-0.3
			C645.6,188.6,645.6,188.5,645.6,188.5L645.6,188.5z"/>
		<path d="M624.2,217.9c0.2-0.1,0.4-0.2,0.6-0.3c-0.4,0.2-0.8,0.4-1.1,0.6C623.8,218.1,624,218,624.2,217.9z"/>
		<path d="M630.9,213.5c0.2-0.1,0.3-0.3,0.5-0.4c0,0-0.1,0.1-0.1,0.1c-0.2,0.2-0.4,0.3-0.6,0.5C630.7,213.6,630.8,213.6,630.9,213.5
			z"/>
		<path d="M634.8,209.8c0.4-0.4,0.8-0.9,1.2-1.4c-0.2,0.2-0.4,0.4-0.5,0.6C635.3,209.3,635.1,209.6,634.8,209.8z"/>
		<path d="M636.1,208.5c0.1-0.1,0.2-0.2,0.2-0.3C636.3,208.3,636.2,208.3,636.1,208.5L636.1,208.5z"/>
		<path d="M637.9,206.2c0,0.1-0.1,0.1-0.1,0.2c-0.1,0.1-0.2,0.2-0.2,0.3C637.7,206.5,637.8,206.3,637.9,206.2z"/>
	</g>
</g>
</svg>
