<?xml version="1.0" encoding="utf-8"?>
<!-- Generator: Adobe Illustrator 22.0.1, SVG Export Plug-In . SVG Version: 6.00 Build 0)  -->
<svg version="1.1" xmlns="http://www.w3.org/2000/svg" xmlns:xlink="http://www.w3.org/1999/xlink" x="0px" y="0px"
	 viewBox="0 0 1080 1080" style="enable-background:new 0 0 1080 1080;" xml:space="preserve">
<style type="text/css">
	.st0{display:none;fill:#269DC6;}
	.st1{display:none;fill:#29ABE2;}
	.st2{fill:#F4F7BF;}
	.st3{fill:#FF9370;}
	.st4{fill:#FF561F;}
	.st5{fill:#8D1CFF;}
	.st6{fill:#470E80;}
	.st7{fill:#6A15BF;}
	.st8{fill:#8C1AFF;}
	.st9{fill:#FFB096;}
	.st10{fill:#4D4D4D;}
	.st11{opacity:0.6;fill:#FFFFFF;}
	.st12{fill:#FF9F80;}
	.st13{fill:#FFF3F0;}
	.st14{opacity:0.1;}
	.st15{fill:#FF926E;}
	.st16{opacity:0.2;}
	.st17{fill:#AABF00;}
	.st18{fill:#FFFF00;}
	.st19{opacity:0.3;}
	.st20{opacity:0.3;fill:#AABF00;}
	.st21{fill:none;}
	.st22{fill:#FFFFFF;}
	.st23{fill:#E0FBF5;}
	.st24{fill:#E3FBF6;}
	.st25{fill:#00DFAA;}
	.st26{fill:#61EBCA;}
	.st27{display:none;}
	.st28{fill:#6EEDCF;}
	.st29{display:inline;fill:#FFFFFF;}
	.st30{display:inline;}
	.st31{fill:#D4DF00;}
</style>
<g id="ENFEITES">
	<polygon class="st0" points="1100.2,623 555.3,517.1 555.3,148.3 1100.2,254.2 	"/>
	<polygon class="st1" points="10.4,624.6 555.3,518.6 555.3,149.9 10.4,255.8 	"/>
	<path class="st2" d="M320.1,744.9C175.6,652.4,171.6,477,244.5,445.3c40-17.4,113.1,4.3,143.6,13.4c12,3.6,64.7,19.9,112,58.8
		c98.5,81.2,115.8,213.6,75.6,225.5c-41.2,12.2-175.9-92.3-194.8-210.3c-4.9-30.7-14.5-91.1,41.3-134.7
		c70.6-55.1,214.8-58.9,292-20.4c157,78.4,69.4,348.1-46,366.9c-85.3,13.9-239.4-100.5-211.8-188.4
		c32.4-103.1,311.4-158.4,423.3-87.8c94.7,59.7,58.2,202.4-48.5,277.7C697.2,840.8,452.7,829.7,320.1,744.9z"/>
</g>
<g id="PESCOÇO">
	<path class="st3" d="M673.1,450.4c-7.4,6.5-12.8,3.6-50,5.3c-31.7,1.5-40.5,4.2-44.2-1.5c-5-7.5,9-16,12.6-42.3
		c1.6-11.4,1.5-28.3,0.6-39.1c-0.3-3.7-1.2-14.3,3.5-26.1c0.4-0.9,0.7-1.9,1.2-2.8c8.8-16.1,38.9-23.5,50.5-13.1
		c9.3,8.3,0.7,22.5,6.9,39.5c0.9,2.5,2.1,5,3.8,7.6c0.8,1.2,1.6,2.3,2.3,3.3c0.5,0.6,1,1.2,1.5,1.8c-1.2,3.6-2.6,6.8-3.8,9.3
		c0,0,0,0.1,0,0.1c-4.2,9.2-9.3,16.1-13.3,20.8c4.1,6.7,8.2,13.5,12.3,20.2c11.6-10.8,18.9-23.8,20.8-36.3c0.5,0.8,1.1,1.7,1.6,2.7
		C687.6,415.2,686,439.2,673.1,450.4z"/>
</g>
<g id="roupa">
	<g id="Camada_9">
		<g>
			<path class="st4" d="M572.6,601c4.8,23.2,75,68,113.8,48.4c51.3-25.9,53.9-165.6-7.8-200.2c-17-9.5-37.5-7.3-56.3-8
				c-12.6-0.5-38.9-12.9-48.6-2.7c-9,9.3,10,29,8.6,70.1C581.7,526.3,581.3,538.5,572.6,601z"/>
		</g>
	</g>
	<g id="Camada_7">
		<path class="st5" d="M809.8,584c-1.4,5.3-6.1,8-8.2,9.5c-11.8,8.2-6.4,21.7-18.8,42.8c-4.5,7.7-10.9,18.5-22,21.3
			c-8,2-13.5-2.9-22.8-4.4c-40.8-6.4-55.1-2.6-66.1-14.6c-3.3-3.6-5.5-12.2-9.7-29.1c-6-24.2-7.8-38.6-12.9-65.8
			c-3.1-16.4-3.7-17.5-5-24.1c-0.4-2.2-0.9-4.9-1.7-9c-9.9-57.8-1.2-44.2-5.8-74.8c-0.5-3.2-1.8-11.7,2.9-18.5
			c4.5-6.5,10.2-3.4,16.5-9.7c7.8-7.9,3.2-16.9,9.6-21c2.5-1.6,5.4-1.7,24.5,4c10.9,3.3,15.9,5.1,26.2,8.4
			c18.3,5.9,19.4,5.7,26.6,8.7c11.3,4.9,17.1,7.4,22.3,13c4.7,4.9,4.6,7.6,12.6,33.7c2.4,7.6,3.8,15.8,7,23.1
			c3.5,7.9,7.1,15.5,9.8,23.7c3.9,11.9,6.4,24.2,7.4,36.6c0.5,5.9,0.3,11.8,1.7,17.5c1.5,6.2,3.7,12.3,4.7,18.7
			C809.4,578.9,810.5,581.3,809.8,584z"/>
		<path class="st6" d="M671.2,380.5c0.7,2.9-1.6,4.4-4.2,4.5c-4.7,0.2-7-3.1-9.1-6.7c-0.1-0.1-0.3-0.4-0.5-0.9
			c-0.8-1.4-1.2-2.1-1.4-2.4c-0.6-1.2-0.9-2.1-1.5-3.9c-0.3-0.8-0.4-1.2-0.3-1.4c0.6-1.3,6-0.5,10.2,2c0.8,0.4,1.3,0.9,1.7,1.2
			C667.5,374.7,670.6,377.7,671.2,380.5z"/>
		<path class="st7" d="M677.8,397.1c-0.1,7.2-2.9,12-6.8,18.8c-3.5,6.2-8.2,12.1-14,17.5c-4.1-6.7-8.2-13.5-12.3-20.2
			c4.1-4.8,9.1-11.7,13.3-20.8c0,0,0-0.1,0-0.1c2.2-4.4,3.4-7.9,3.8-9.1c0,0,0-0.1,0.1-0.2c0.7-2.1,1.3-4.2,1.6-6.4
			c0.1-0.9,0.3-1.8,0.3-2.7c0-0.5-0.4-2.1,0.1-2.4c0.5-0.4,1.4,0.4,1.8,0.7c4.3,3.3,6,6.3,6,6.3
			C674.7,383.9,677.9,389.4,677.8,397.1z"/>
	</g>
	<g id="Camada_11">
		<path class="st5" d="M539.5,545.5c-2.9,2.5-4.8,2-9,3.1c0,0,4-14.2,2.5-14.8c-0.8-0.3-3.1,3.2-7,10c-1,1.7-2.1,3.5-3.3,5.6
			c-1.5,2.6-3.2,5.4-5,8.6c-3.4,5.7-6,10.2-8.3,13.8c-5.8,9.1-8.6,12-13,13.2c-5.2,1.5-6.2-1.1-16.1-0.9
			c-11.4,0.2-17.6,3.6-23.3,4.9c-8.4,1.9-21.6,0.5-41.7-15.8c24-16,36.6-33,43.7-45.8c6.5-11.7,7.4-18.2,12.7-32.3
			c2.9-7.8,5.4-13.2,8.2-19.7c0,0,5.3-12.2,12.5-25.6c0.4-0.8,0.9-1.6,1.3-2.4c0.7-1.3,1.7-2.9,3.7-6c0-0.1,0.1-0.1,0.1-0.2
			c2.6-4,5.9-9.5,10.4-11.7c5.5-2.7,8.8,2.8,11,7.3c0.5,1,0.9,1.9,1.2,2.7c1.4,3,2.7,6.1,4,9.1c0.3,0.6,0.5,1.2,0.8,1.9
			c1.3,3.1,2.6,6.3,3.8,9.5c5.3,13.6,9.6,27.5,12.4,41.8C541.2,501.7,548.2,538,539.5,545.5z"/>
		<path class="st7" d="M527.4,441.7c-0.9,2.4-2,4.7-3.2,6.9c-5,9.2-11.9,16.8-14.6,18.5c-0.5,0.3-0.8,0.4-1,0.3
			c-0.2-0.1-0.2-0.4-0.2-1v0c0.3-2,1.6-6.6,0.5-13.4c-0.5-3.4-1.5-9.5-5.7-11.6c-2.3-1.1-4-0.4-5.8-0.1c0-0.1,0.1-0.1,0.1-0.2
			c2.6-4,5.9-9.5,10.4-11.7c5.5-2.7,8.8,2.8,11,7.3c0.1-0.3,0.1-0.6,0.2-0.9c0.9-4.8,0.9-7.6,1.3-9.8c0.4,0.7,0.7,1.3,1,2
			c0.1-0.3,0.1-0.6,0.2-0.9c0.5-2.8,0.7-4.9,0.9-6.6c0.7-1.2,1.7-2.3,2.8-3.2c0.9,1,1.7,2,2.3,3.1
			C531.2,426.5,530.3,434.3,527.4,441.7z"/>
		<path class="st7" d="M526,565.2c-1.1-5.3-2.3-10.5-3.3-15.8c-1.5,2.6-3.2,5.4-5,8.6c-3.4,5.7-6,10.2-8.3,13.8
			c-3.1-2.9,2.4-8.1,3.3-22.7c0.5-7.4-0.5-12.8,1.9-22.4c0.9-3.4,1.5-5.9,2.5-6.7c0.2-0.2,0.4-0.3,0.6-0.3
			c3.1-0.3,6.5,13.8,8.2,24.2c0.2,1.4,0.4,2.6,0.6,3.8C528,557.4,527.1,562.5,526,565.2z"/>
	</g>
	<g id="Camada_10">
		<path class="st5" d="M600.8,489.2c-1.4,9.6-1.9,8.3-6.8,30.1c-8.8,39.7-13.3,59.5-14.6,76.8c-1.1,15.1,0.1,20.7-4.9,25.3
			c-8.4,7.7-27.1,5.8-36.3-4c-5.9-6.3-6.5-14.2-7.1-21.3c-1-10.4-3-20.7-5.1-30.9c-1.1-5.3-2.3-10.5-3.3-15.8
			c-0.9-4.2-1.7-8.5-2.4-12.7c-1-6.2-2.1-11.7-3.2-16.8c-4.9-23.6-9.4-35.1-9.9-44.1c-0.2-3.3,0.2-6.3,1.3-9.5v0
			c0.3-0.8,0.6-1.6,1-2.4c2-4.3,7.8-18.8,9.5-27.3c0.1-0.3,0.1-0.6,0.2-0.9c0.9-4.8,0.9-7.6,1.3-9.8c0.1-0.7,0.2-1.3,0.4-1.9
			c0.1-0.2,0.1-0.4,0.2-0.6c0,0,0.5-1.2,1.1-2.3c0.1-0.2,0.3-0.5,0.4-0.7c0.7-1.2,1.7-2.3,2.8-3.2c5-4.4,13.1-6.4,18.7-8.6
			c14.3-5.8,15.1-8.6,32.7-14.4c7.4-2.4,9.6-2.5,10.7-2.3c0,0,0.3,0.1,0.5,0.1c5.2,1.6,8.1,10.6,12.5,23.9
			c2.8,8.5,3.7,11.3,2.9,15.4c-0.8,3.7-2,4.7-3.6,7.8c-4.4,8.8,3.1,13.8,2.9,31.6C602.4,478,601.1,487.2,600.8,489.2z"/>
	</g>
	<g id="Camada_20">
	</g>
	<path class="st7" d="M576.9,391c-2.1,4.6-0.8,9,1,17.8c1.1,5.2,3.2,12.9,7.8,21.7c1.7-2.1,3.6-4.3,5.8-6.5c3.1-3.1,6.1-5.7,8.9-7.9
		c-2.5-5.7-5.3-13.8-6.7-23.8c0-0.1,0-0.1,0-0.1c-0.3-2.2,2.2-3.8,4.4-6.4c0.5-0.6,4.1-4.9,2.9-6.8c-0.5-0.9-1.9-0.9-3.2-1
		c-3.1-0.1-5.5,1-6.2,1.3C585.4,382.2,579.6,385,576.9,391z"/>
</g>
<g id="CABEÇA">
	<path class="st8" d="M684.9,251.5"/>
	<g>
		<path class="st9" d="M563,277c-5.1,8.6-3,16.6-2.1,30.4c1.5,23.4-3.1,22-0.9,35.3c1,6.1,7,37.2,29.5,43.8
			c11.4,3.4,22.6-1.4,32.7-6.4c7.6-3.8,21.5-10,21.1-20.1c-0.2-3.8-2.7-6-1.3-9.6c1.7-4.4,8.1-6,11.3-9.1c7-6.8,16-38.9-3.6-34
			c-5.8,1.5-9.5,8.1-8.9,13.8c-1.4-3.6,1-8.1,1.7-11.9c6.3-37.2-35.2-61.6-67.2-43.4C571.8,267.9,566.6,271,563,277z"/>
		<path class="st10" d="M558.1,290c0.8,9.2,5.8,15.9,10.5,16.3c7.8,0.6,15.6-16.2,12.5-19.6c-0.5-0.6-1.4-0.9-2.1-0.6
			c-3.3,1.5-1.9,19.4,4.8,21.8c7.6,2.6,21.4-14.5,18.8-19.1c-0.6-1.1-2.3-1.7-3.3-1.2c-3.6,1.8-1.8,19.6,5.4,22.1
			c8.2,2.8,21.9-14.2,19.4-18.5c-0.9-1.6-4.5-2-6.4-0.6c-4.8,3.5-1.9,20.4,4.8,22.4c7.7,2.2,20-15.1,17.6-18.5c-0.7-1-3-1.2-4.5-0.3
			c-4.1,2.6-0.8,10.4,0.2,13.9c2,7.2,0.5,16-2.1,22.9c-0.6,1.5-1.4,3.4-1,5c0.4,2,2.7,1.6,4.1,0.9c3.2-1.6,2.7-4.9,3-7.9
			c0.3-4,1.7-8.8,3.3-12.4c1.4-3.3,3.8-6.7,7.5-7.5c6.1-1.4,10.8,3.7,11,9.4c0.2,5.2-2.1,10.6-4.9,14.8c-4.3,6.3-8.1,5.9-9.4,11
			c-1,4,0.3,8.3,2.2,11.8c1.2,2.2,2.6,4.3,4.2,6.2c0.5,0.6,1.7,2.3,2.6,2.3c1.2,0,0.4-1.2,0.1-1.9c-0.8-2.2-1.7-4.4-1.9-6.8
			c-0.9-10.4,8.3-14.5,14.9-28.7c5.1-11,6.8-24.3,4.5-25.3c-1.8-0.7-4.3,2.7-4.6,4.1c-0.7,3,1.6,4.6,2.9,6.8c1.7,3,2.2,6.5,2.3,9.8
			c3.6-5.9,5.3-13.1,6.2-19.9c0.6-4.4,3.6-17.4-2.2-19.8c-2.6-1.1-5.6,1.4-6.1,4.1c-0.9,5.2,4.4,10.2,6.3,14.8c3.4,8.3,2,14,2.7,14
			c1.9,0.1,12.2-36.8-2.1-47.1c-4.8-3.5-12.3-3.8-17.3-1.2c-8.4,4.3-11,17-10.2,17.3c1.1,0.5,16.2-20.4,10.6-28.9
			c-4.5-6.7-21.9-5.8-24.2-0.6c-1.5,3.5,3.3,10.2,6.4,9.8c2.3-0.3,3.4-4.4,3.6-5.1c2.6-9.1-4.3-24.7-14.8-24.8
			c-7.5-0.1-14.2,7.8-15.4,15.2c-1.1,6.8,2.3,14.2,4.2,14c2-0.1,4.2-8.2,2.7-14.9c-2.5-11.8-16.8-24.2-27.6-20.3
			c-12.1,4.3-14.9,27.5-7.9,33.1c3.4,2.7,9.9,2.2,11.5-0.6c2.4-4.3-5.9-16.4-17.3-20c-14.4-4.5-27.2,6.6-27.9,7.2
			c-13.6,12.1-10.2,31.9-10,33.1c1.4,8,4.8,8.8,6.4,19.4c1.6,10.8-0.8,18.6,0.9,19.1c1.2,0.3,4.5-4.1,6.4-9.8
			c4.7-14.1-1.1-29.1-1.8-28.9C557.3,281.9,557.3,283.6,558.1,290z"/>
	</g>
</g>
<g id="FUMAÇA">
	<path class="st5" d="M465.2,389.3"/>
	<path class="st11" d="M579.5,455.4c-0.6-0.4-1.1-0.8-1.5-1.3c-2.6-2.9-3.8-6.9-6.2-9.9c-3.8-4.7-10.2-6.5-16.2-6.5
		c-6-0.1-11.9,1.3-17.9,1.9c-4.4,0.4-25.8-1.2-15-8.9c1.9-1.4,4.2-2,6.5-2.6c8.2-2.2,16.4-4.5,24.6-6.7c3.2-0.9,7.2-2.8,6.8-6.1
		c-0.2-1.8-1.8-3.1-3.6-3.7c-1.7-0.5-3.6-0.4-5.4-0.4c-9.7,0.2-19.4-1.8-28.2-5.9c-4.5-2.1-9.2-5.3-9.9-10.2
		c-0.6-4.2,2.1-8.2,5.7-10.5c3.6-2.2,7.8-3,12-3.6c4.2-0.6,8.4-1.1,12.2-2.9c2.4-1.1,4.7-3.7,3.6-6c-1.3-2.6-5.2-1.8-8-1.2
		c-9.3,2-19.6-4-22.4-13.1c-0.8-2.6-1.1-5.4-0.1-7.9c1-2.5,3.4-4.6,6-4.6c4,0,6.7,4,9.7,6.6c5.1,4.3,12.3,5.1,19.1,4.9
		s13.6-1,20,0.9c6.4,1.9,12.4,7.6,12,14.3c-0.3,4.6-3.6,8.6-7.6,10.8c-4,2.2-8.7,2.9-13.3,3.2c-3,0.2-6.2,0.2-8.9,1.7
		s-4.5,5-2.9,7.7c1.7,3,6.1,2.8,9.5,2.3c12.3-1.6,24.9-1.1,37.1,1.4c4.6,1,10.1,3.1,10.8,7.8c0.6,4.1-2.9,7.7-6.6,9.4
		c-3.7,1.7-8,2.3-11.5,4.3c-7.2,4.1-9.9,14.6-5.6,21.7c1.3,2.1,3,3.9,4.1,6s1.5,5,0.1,6.9C586.3,457.8,582.3,457.3,579.5,455.4z"/>
</g>
<g id="POLGAR">
	<path class="st12" d="M623.9,471.4c-4.2-1.2-5.2-6.4-7.3-9.6c-2.8-4.5-17.5-10.2-11.9-16.3c4.2-4.6,11-1.2,14.9,1.7
		c10.3,7.8,17.7,13.3,16.1,18.4C634.4,469.6,628.3,472.7,623.9,471.4z"/>
</g>
<g id="CANECA">
	<path class="st13" d="M623.8,462.9c-3.6,13.3-11.9,25.3-23.1,33.4c-0.1,0.1-0.3,0.2-0.4,0.3c-5.6,4-12.1,7-18.9,7.6
		c-2.5,0.2-8.2,0.5-14.3-2.6c-1.1-0.5-2-1.1-2.8-1.6c-0.4-0.2-0.7-0.5-1-0.7c-0.9-2.7-1.5-4.8-1.8-6c-2.3-8.9-2.5-15.8-2.7-40.2
		c0-1.1,0-3.4,0-4.5c1.3-0.4,3.2-1,5.6-1.6c2.7-0.7,7.7-1.9,22.3-3.6c8.1-0.9,9.9-0.9,12,0.3c3.3,2,4.6,5.6,5.2,7.9
		c5.4,1.3,9.7,2.2,12.8,2.7c3.4,0.5,5.9,0.8,7.1,2.7C625,458.9,624.2,461.3,623.8,462.9z"/>
	<path class="st14" d="M600.3,496.5c-5.6,4-12.1,7-18.9,7.6c-2.5,0.2-8.2,0.5-14.3-2.6c-1.1-0.5-2-1.1-2.8-1.6
		c3.3-1.8,8.2-3.5,12.6-4.4C586.1,493.6,594.3,494.8,600.3,496.5z"/>
</g>
<g id="BRACO_x5F_ESQ">
	<path class="st9" d="M610.3,464.9c-2.4-1.5-4.7-3.4-4.6-5.5c0.2-4.3,10.6-8.1,19.2-7.9c0.8,0,14.9,0.7,23.6,12
		c12.4,16,1.2,37.6-0.3,40.5c-1.9,3.7-7.8,15.1-16.2,14.9c-2.9-0.1-7.7-1.6-10-5.2c-1.6-2.5-0.7-4-2.6-6.2c-1.5-1.7-2.8-1.5-8.7-3.6
		c-6.6-2.3-7.6-3.3-8.1-4.2c-1.1-1.9-1.3-4.7,0-6.6c0.9-1.3,3-1.2,3.7-2.3c2.1-3-5-6.2-2.1-10.6c0.6-0.9,3.8-2.1,3.9-2.8
		c0.1-0.8-2.2-1.7-2.7-2.2c-1.3-1.4-2.3-3.8-1.9-5.7C604,466.6,607.5,464.4,610.3,464.9z"/>
	<path class="st7" d="M796.7,588.1c-3.9,23.7-13.1,63.7-35.8,68.9c-5.2,1.2-6.8-0.4-22.9-3.8c-41.8-8.8-55.4-2.9-66.1-14.6
		c-3.3-3.6-5.5-12.2-9.7-29.1c-6-24.2-7.8-38.6-12.9-65.8c-3.1-16.4-3.7-17.5-5-24.1c6.1,5.2,15.1,10,28.5,17.2
		c14.3,7.7,22.8,9.9,32.1,20.4c6.9,7.9,5.1,10.1,11.7,16.5c8,7.8,13.8,7.7,34,15.5c20.1,7.8,25.3,12.3,31.3,12.8
		c1.2,0.1,2.9,0.6,4.6-0.2c8.3-3.9,3.6-28.1,5.5-28.4C792.5,573.5,793.9,576.7,796.7,588.1z"/>
	<path class="st5" d="M809.3,581.5c-0.3,0.8-0.6,1.5-0.9,2.3c-25,56-101-17.6-128.2-32c-12.6-6.7-30.4-11.3-38.5-23.9
		c-2-3.1-3.4-6.7-4.2-10.5c-4.7-21.8,8.3-52,23.6-54.8c5.9-1.1,10.2,2.2,19.8,8.4c1.5,0.9,23.5,12.8,67.7,36.5
		c35.3,19,39.5,17.7,47.8,28.1C800.1,540.2,816.2,561.6,809.3,581.5z"/>
</g>
<g id="PLANTAS">
	<g id="MESA">
		<g>
			<path class="st15" d="M866.1,654.3v35c-67.8,20.1-135.5,40.1-203.3,60.2c-162.5-27.8-325.1-55.5-487.6-83.3v-43.5l236.7-27
				L866.1,654.3z"/>
		</g>
	</g>
	<g id="objs_x5F_mesa">
		<g id="notebook">
			<g id="inf_x5F_note">
				<path class="st16" d="M638.3,635.1c0,1.3-1.9,2.8-5.7,4.2c-1.5,0.6-3.3,1.1-5.4,1.6L496,675.9c-55-12.6-123.1-35.9-178-48.5
					l144.4-24.3c11.9-3,28.4-3.8,36.9-1.9l134,30.8C636.7,632.8,638.3,633.9,638.3,635.1z"/>
				<path class="st17" d="M632.7,617.5v7.5c0,1.9-3.8,4.1-11,5.9L488.9,664L324,626.2l15.5-3.9l149.3,34.3l132.7-33.2
					c2.1-0.5,3.9-1.1,5.4-1.6C630.7,620.3,632.7,618.8,632.7,617.5z"/>
				<path class="st18" d="M632.7,617.5c0,1.3-1.9,2.8-5.7,4.2c-1.5,0.6-3.3,1.1-5.4,1.6l-132.7,33.2l-149.3-34.3l-15.5-3.6
					l132.7-33.2c11.9-3,28.4-3.8,36.9-1.9l134,30.8C631.1,615.2,632.7,616.3,632.7,617.5z"/>
				<path class="st19" d="M548.3,635c0,1.3-1.9,2.8-5.7,4.2c-1.5,0.6-3.3,1.1-5.4,1.6l-35.4,8.9l-11.8,2.9l-15.5,3.9l-0.4,0.1
					l-137.7-29.3l-6.8-13.7l42.7-10.7c11.9-3,28.4-3.8,36.9-1.9l1.8,0.4l75.5,17.3l56.7,13C546.7,632.7,548.3,633.8,548.3,635z"/>
				<path class="st20" d="M575.2,607c0,0.5-0.8,1.1-2.2,1.7c-0.6,0.2-1.3,0.4-2.1,0.6l-52.1,13.1l-58.7-13.5l-6.1-1.4l52.1-13.1
					c4.7-1.2,11.2-1.5,14.5-0.7l52.7,12.1C574.6,606.1,575.2,606.5,575.2,607z"/>
				<line class="st21" x1="632.7" y1="651" x2="632.7" y2="644.6"/>
				<line class="st21" x1="632.7" y1="637.2" x2="632.7" y2="633.3"/>
			</g>
			<g id="book">
				<path class="st16" d="M727.1,707.2c-29.4,8.4-58.7,16.8-88.1,25.3c-31.6-10.7-63.2-21.4-94.8-32.1c24.3-3.7,49.3-8,75-13
					c15.4-3,30.6-6.1,45.4-9.4C685.4,687.7,706.3,697.5,727.1,707.2z"/>
				<path class="st10" d="M718.6,699.6c0,0.8-1.1,1.6-3.2,2.4c-0.9,0.3-1.9,0.6-3,0.9l-75,18.8L553,702.4l-8.8-2l75-18.8
					c6.7-1.7,16.1-2.1,20.9-1l75.7,17.4C717.7,698.3,718.6,698.9,718.6,699.6z"/>
				<path class="st22" d="M718.6,694.1c0,0.8-1.1,1.6-3.2,2.4c-0.9,0.3-1.9,0.6-3,0.9l-75,18.8L553,696.8l-8.8-2l75-18.8
					c6.7-1.7,16.1-2.1,20.9-1l75.7,17.4C717.7,692.8,718.6,693.4,718.6,694.1z"/>
				<path class="st22" d="M718.6,692.2c0,0.8-1.1,1.6-3.2,2.4c-0.9,0.3-1.9,0.6-3,0.9l-75,18.8L553,694.9l-8.8-2l75-18.8
					c6.7-1.7,16.1-2.1,20.9-1l75.7,17.4C717.7,690.9,718.6,691.5,718.6,692.2z"/>
				<path class="st22" d="M718.6,690.2c0,0.8-1.1,1.6-3.2,2.4c-0.9,0.3-1.9,0.6-3,0.9l-75,18.8L553,692.9l-8.8-2l75-18.8
					c6.7-1.7,16.1-2.1,20.9-1l75.7,17.4C717.7,688.9,718.6,689.5,718.6,690.2z"/>
				<path class="st22" d="M718.6,688.3c0,0.8-1.1,1.6-3.2,2.4c-0.9,0.3-1.9,0.6-3,0.9l-75,18.8L553,691l-8.8-2l75-18.8
					c6.7-1.7,16.1-2.1,20.9-1l75.7,17.4C717.7,687,718.6,687.6,718.6,688.3z"/>
				<path class="st22" d="M718.6,696c0,0.8-1.1,1.6-3.2,2.4c-0.9,0.3-1.9,0.6-3,0.9l-75,18.8L553,698.8l-8.8-2l75-18.8
					c6.7-1.7,16.1-2.1,20.9-1l75.7,17.4C717.7,694.7,718.6,695.4,718.6,696z"/>
				<path class="st22" d="M718.6,698c0,0.8-1.1,1.6-3.2,2.4c-0.9,0.3-1.9,0.6-3,0.9l-75,18.8L553,700.7l-8.8-2l75-18.8
					c6.7-1.7,16.1-2.1,20.9-1l75.7,17.4C717.7,696.7,718.6,697.3,718.6,698z"/>
				<path class="st10" d="M718.6,686.8c0,0.8-1.1,1.6-3.2,2.4c-0.9,0.3-1.9,0.6-3,0.9l-75,18.8L553,689.5l-8.8-2l75-18.8
					c6.7-1.7,16.1-2.1,20.9-1l75.7,17.4C717.7,685.5,718.6,686.1,718.6,686.8z"/>
				<path class="st23" d="M658.3,698.5c0,0.2-0.3,0.4-0.8,0.6c-0.2,0.1-0.5,0.2-0.8,0.2l-19.5,4.9l-22-5l-2.3-0.5l19.5-4.9
					c1.7-0.4,4.2-0.6,5.4-0.3l19.7,4.5C658,698.1,658.3,698.3,658.3,698.5z"/>
				<line class="st21" x1="764.3" y1="736.2" x2="764.3" y2="729.8"/>
				<line class="st21" x1="764.3" y1="722.4" x2="764.3" y2="718.5"/>
				<path d="M719.7,749"/>
			</g>
			<g id="MAODIR">
				<g id="Camada_18">
					<path class="st9" d="M497.1,615.2c-0.7,2.6-2.2,8.9-5.5,9.3c-0.6,0.1-1.1,0-1.6-0.2c-1-0.4-1.8-1.1-2-1.4
						c-3.6-3.6,0-8.9-3.1-12.4c-1.1-1.3-1.4-0.3-9.8-3.1c-4.4-1.5-5-1.9-6.8-1.8c-2.2,0.2-3.2,1.1-7,1.8c-0.4,0.1-1.4,0.3-2.7,0.7
						c-0.7,0.2-1.5,0.5-2.5,1c-3.7,2-6.6,5.3-8.4,9.1c-0.9,1.9-1.6,4-2,6c-0.7,3.3,1,10.9-3.8,11.8c-1.6,0.3-3.2-0.3-4.8-0.8
						c-5.2-1.9-19.8-4.3-22.3-9.2c-2.1-4.1-0.2-8.8,2.5-15.6c3.8-9.3,8.4-10.1,13.5-18.9c5.9-10.2,2.7-13.7,6.8-18.3
						c9.8-11.2,43.4-9.2,56,10.7C501.8,596.5,498,611.6,497.1,615.2z"/>
				</g>
				<path class="st3" d="M492.8,616.3c-0.2,1.4-0.4,2.6-0.8,3.8c-0.4,1.4-1,2.8-1.9,4.1c-1-0.4-1.8-1.1-2-1.4
					c-3.6-3.6,0-8.9-3.1-12.4c-1.1-1.3-1.4-0.3-9.8-3.1c-4.4-1.5-5-1.9-6.8-1.8c-2.2,0.2-3.2,1.1-7,1.8c-0.4,0.1-1.4,0.3-2.7,0.7
					c-0.7,0.2-1.5,0.5-2.5,1c-3.7,2-6.6,5.3-8.4,9.1c-0.3-0.5-0.5-1-0.6-1.3c-1.2-4.1,3.5-7.9,5.8-14.3c0.5-1.5,0.7-2.5,0.8-3.3
					c0.3-2.5-0.3-3.2,0-4.2c0.8-2.3,5.6-1.8,7.5-2.1c2.9-0.5,5.9-1.4,8.4-2.9c2.3-1.4,5.6-4.9,8.2-1.6c0.8,1.1,1,2.6,1.4,3.9
					c1,3.2,4.4,3.2,7,4.6C492.2,600,493.6,609.4,492.8,616.3z"/>
			</g>
			<g id="SUP_x5F_note">
				<path class="st10" d="M490.6,664l-0.9-0.2l-21.5-4.6l-12.4-2.6L318,627.4l-6.8-13.7l-48.4-97.6c-4.9-10-1.7-16.5,7.2-14.6
					l140.3,29.8c8.9,1.9,20.1,11.5,25.1,21.5l16.8,33.9l9.8,19.8l1.4,2.7l4.8,9.7l15.3,30.8l3.2,6.4l3.8,7.6L490.6,664z"/>
			</g>
		</g>
	</g>
</g>
<g id="Camada_24">
	<g>
		<path class="st24" d="M157.9,527.8"/>
		<g id="XMLID_1_">
			<path class="st25" d="M198,660c0-2-1-5-3-6c-22-11-38-26-54-44c-2-2-3-5-5-7c-5-7-10-14-9-23c6-5,11,2,15,5c6,7,13,13,22,14
				c2,0,4-3,3-5c-12-15-26-26-36-42c-5-8-9-18-4-26c1-1,4,0,5,0c7,4,12,9,19,12c3,1,6,0,8-2c1-3-1-6-2-9c-12-18-25-36-24-57
				c8-7,19,1,26,7c0,0,1,0,2,0c2-1,1-3,2-4c1-14-1-29,8-42c12-16,30-25,49-26c9,0,18,3,24,10c7,9,10,20,5,30c-3,6-7,11-11,16
				c-2,4-7,8-6,13c1,1,2,3,4,3c9-2,17-6,26-6c3,1,2,5,0,7c-13,15-27,26-39,42c-2,3-3,6-3,9c0,0,1,1,2,1c9-4,17-10,26-14
				c8-3,17-2,26-2c3,0,5,1,7,3c3,3,1,7-1,10c-10,11-22,20-32,31c-6,7-11,14-15,23c-1,2,0,5,0,8c1,2,0,6,5,3c12-6,23-16,37-14
				c2,1,4,2,5,5c0,3,1,6,0,8c-12,24-26,44-40,67c0,1,2,3,3,3c13-10,24-19,38-27c3-1,6-2,9,0c10,10,4,26-3,37c-10,13-20,23-32,34
				c-1,1-2,3-2,4l1,1c10-1,17-9,25-14c3-2,7-1,9,2c6,11-1,23-10,30c-27,22-55,41-86,55c-1-6-5-11-7-17c-2-4-5-8-7-13
				c-8-15-18-27-28-42c-2-3-3-6-2-9c0-7,9-8,15-8c10,1,16,9,23,15c2,1,4-1,3-4c-17-20-46-34-45-62c0-5,7-5,11-4c15,5,26,15,40,23
				C196,662,198,662,198,660L198,660z"/>
		</g>
		<g>
			<path class="st26" d="M116,684c-1-2-1-4-2-6c-16-16-24-36-36-55c-1-3-3-6-3-9c0-5,5-8,9-6c4,3,7,6,10,10c4,3,9,7,15,4
				c-1-7-6-12-10-18c-6-7-14-12-20-19c-2-3-5-6-3-11c11-5,21,4,32,5c2,0,4-2,4-3c-10-16-28-21-43-31c-2-2-6-5-2-7c10-4,20-2,30,1
				c0,0,1-1,2-1c-1-1-1-2-1-3c-10-11-29-23-18-39c16-22,44-15,63-1c11,9,14,22,15,35c0,5,4,8,9,7s7-6,12-7c6,5,4,14,1,21
				c0,1,0,2,0,3c-4,10-8,19-14,27c3,2-4,4,4,5c2,0,3-3,5-4c1-1,3,0,4-1c8-6,17-7,26-6c3,1,4,6,3,9c-7,24-30,35-46,53c-1,2-4,8,1,7
				c12,0,23-8,35-5c4,1,2,7,0,10c-14,18-33,27-47,44l1,2c1,0,3,0,4,0c13-6,27-11,41-16c2,0,5,1,7,2c6,7,1,17-4,24c-8,9-16,16-23,25
				c9,3,16-6,23-10c4-2,9-1,13,1s6,7,4,11c-12,19-27,35-33,56c-30-9-57-24-80-45c-5-6-12-11-14-19c-1-6,5-8,9-8c8,2,12,8,18,13
				c1,1,2,2,3,1c1-2-1-4-2-5c-9-8-17-15-25-24c-7-8-12-17-14-28c-1-5-2-13,5-15c14,4,20,18,30,28h2C116,686,116,685,116,684L116,684
				z"/>
		</g>
	</g>
	<g>
		<path class="st25" d="M845.1,660.7c0.9-4.6-3.4-8.7-6.1-11.9c-10.2-12.7-18.5-27.3-24.9-42.5c-2.1-4.9-4.3-9.8-6.2-14.8
			c-2.3-6.1-5.7-14.3-5.4-20.9c0.1-2.6,1.6-5.4,4-6.2c3.4-1.1,6.8,1.7,8.9,4.6c4.7,6.3,7.9,14.1,14.7,18.2c2.3,1.4,7.9,4.3,9.4,0.8
			c1-2.4-1.7-7.1-2.7-9.2c-3.6-8.1-8-15.9-12.8-23.3c-5.6-8.8-11.8-19.9-12.4-30.5c-0.1-2.1,0.1-4.5,1.6-6c3.8-3.7,11,1.4,14.2,3.6
			c4,2.7,14.8,12.4,19.9,10.4c7.7-3.1-3.8-16.9-6.1-20.7c-4.1-6.5-8.5-12.8-12.2-19.5c-7.3-13.4-10.1-20.2-7.5-23.1
			c3.2-3.5,13.3,0.2,15.9,1.1c10.4,3.8,13.5,9.8,16.2,8.7c5.1-2.2-6.8-23.4,0.9-40.6c6.4-14.1,25.2-25.1,44.6-22.3
			c21.1,3,35.6,21.4,37.2,37.2c1.8,18.9-15,32.5-9.6,39c5.3,6.4,23.5-3.9,27,0.8c5.2,7-22.9,31.5-26.9,35.5
			c-2.6,2.6-17.6,13.4-14.8,17.2c0.9,1.2,2.6,1.7,4.2,1.5c1.5-0.2,2.9-0.9,4.3-1.6c12.4-5.7,29-7.1,41.8-2.2
			c19.3,7.4-12.3,27.1-19,31.9c-11.8,8.4-25.6,15.1-36.2,25c-2.4,2.2-7.6,9.7-4.9,13c2,2.5,7.6-0.1,10-0.6c7.5-1.5,15-3.7,22.7-3.5
			c3.6,0.1,8,0.4,11.1,2.5c5,3.2,2.3,9.3-0.7,13.2c-2.3,3-5.3,5.4-8.3,7.8c-9.9,7.8-19.9,15.7-29.8,23.5
			c-6.6,5.2-13.4,9.7-19.7,15.2c-1.2,1-2.5,2.6-1.8,4c0.4,0.8,1.3,1.2,2.2,1.3c0.9,0,1.8-0.3,2.6-0.6c13-4.5,26.1-8.2,39.4-11.9
			c4.6-1.3,10.1-2.4,13.8,0.7c3.2,2.7,3.6,7.6,2.8,11.7c-2.3,11.6-11.4,20.6-21.1,27.3c-6.4,4.5-13.1,8.6-19.5,13.1
			c-1.8,1.3-7.6,3.8-8.1,6.1c-1.5,7.8,19.2-2.2,20.5-2.8c4.5-2.2,10.2-4.3,15-1.8c5.5,2.9,6.7,10.8,4.2,16.4c-3,6.5-9.3,10.2-15,14
			c-7.4,4.9-14.9,9.7-22.3,14.6c-3.7,2.4-43.6,29.1-44,28.6c-17.7-23.2-35.6-46.7-50.1-72.1c-3.4-5.8-13-21.4-7.9-27.8
			c2.5-3.1,7.5-2.9,8.4-2.9c9,0.3,15.3,8.6,20.1,15.3c1.1,1.5,4.9,9.1,6.5,3.8c0.9-3.2-6.6-10.8-8.4-13.5
			c-8-11.3-16.1-22.8-20.7-35.9c-2.1-5.8-8.7-30.2,0.9-33.1c8.2-2.5,17.1,10.1,21.5,15.4c3.7,4.3,6.9,9,10.1,13.7
			C837.4,657,843.8,667.5,845.1,660.7z"/>
		<g>
			<path class="st26" d="M878,667c0-1,1-3,1-4c-7-25-5-49-5-74c0-2,1-4,3-6c3-2,7,0,9,2c4,8,4,20,13,24c1,0,2-1,2-1c3-7,0-13-1-20
				c-2-12-12-25-6-37c6-1,9,3,13,6c4,5,9,9,14,14c1,0,3,0,4,0c3-3,0-6-1-9c-4-11-10-21-16-31c-3-4-9-10-6-15c11,0,20,7,28,14h2
				c0-2,0-3,0-5c-5-13-12-34,5-41c23-9,46,10,55,31c5,13,1,26-3,38c-4,11,11,8,18,9c2,1,1,4,1,6c-5,11-14,19-24,24c-5,3-9,6-14,9
				c-1,1-3,3,2,6c13-3,27-1,37,8c1,5-2,9-6,12c-19,13-39,14-60,19c-3,1-5,3-7,5c-1,1,0,3,2,4c9,3,19,4,28,7c3,1,6,3,6,7
				c-1,7-9,8-15,10c-17,5-34,6-51,11c-1,0-2,2-2,3s1,2,1,2c15,1,29,3,44,5c2,1,5,2,6,4c6,12-9,19-18,23c-9,3-18,4-27,9c-1,1,0,2,1,3
				c9,3,17-2,26,0c7,2,11,9,9,15c-1,5-6,6-10,7c-1,0-1,2-2,2c-10,3-18,8-27,13c-1,1-2,2-3,3c-6,3-10,9-16,12c-5-4-8-9-12-13
				c-2-3-4-6-7-9c-13-19-23-37-30-58c-2-8-7-19,1-25c13-1,13,14,19,23c1,1,2,0,2-1c-6-17-13-33-12-51c0-3-1-7,0-10c2-4,1-9,4-13
				c2-1,2-4,4-5c3-1,7,0,9,3c5,11,5,23,9,34c0,1,0,2,2,2L878,667L878,667z"/>
		</g>
	</g>
</g>
<g id="Camada_1" class="st27">
	
		<image style="display:inline;overflow:visible;" width="2441" height="1627" xlink:href="contact.jpg"  transform="matrix(0.75 0 0 0.75 -375 -70)">
	</image>
</g>
<g id="Camada_25">
	<g>
		<polygon points="683.9,651.5 683.8,651.5 683.8,651.5 683.9,651.5 		"/>
		<g id="celular_2_">
			<g>
				<path d="M687.7,650.1C687.7,650.1,687.7,650.2,687.7,650.1L687.7,650.1C687.7,650.2,687.7,650.1,687.7,650.1z M687.7,650
					L687.7,650C687.7,650,687.7,650,687.7,650L687.7,650z M687.7,650.1C687.7,650.1,687.7,650.2,687.7,650.1L687.7,650.1
					C687.7,650.2,687.7,650.1,687.7,650.1z M687.7,650L687.7,650C687.7,650,687.7,650,687.7,650L687.7,650z M687.7,650.1
					C687.7,650.1,687.7,650.2,687.7,650.1L687.7,650.1C687.7,650.2,687.7,650.1,687.7,650.1z M687.7,650L687.7,650
					C687.7,650,687.7,650,687.7,650L687.7,650z"/>
				<path d="M702,648.7c-3.7-1-9.7-1.3-13.5-0.6l-27.1,4.8l-1.7,0.3l66.5,18.4c3.6,1,9.7,1.3,13.4,0.6l28.8-5.1l-2-0.6L702,648.7z"
					/>
				<path d="M687.7,650.2L687.7,650.2c0,0,0-0.1,0-0.1C687.7,650.1,687.7,650.2,687.7,650.2z"/>
				<path d="M687.7,650C687.7,650,687.7,650,687.7,650L687.7,650L687.7,650z"/>
				<path d="M686.5,649.3c0,0,0.1,0,0.1,0C686.6,649.3,686.6,649.3,686.5,649.3C686.5,649.3,686.5,649.3,686.5,649.3L686.5,649.3z"
					/>
				<polygon points="683.8,651.5 683.9,651.5 683.9,651.5 683.8,651.5 				"/>
				<path d="M661.9,653.6L661.9,653.6c0.3,0,0.6,0.1,0.9,0.2C662.5,653.8,662.2,653.7,661.9,653.6z"/>
				<path class="st21" d="M653.2,654.8l0,0.7C653,655.3,653,655,653.2,654.8z"/>
				<path d="M662.8,653.8c-0.3,0-0.6-0.1-0.9-0.2v0C662.2,653.7,662.5,653.7,662.8,653.8z"/>
				<path d="M666.2,654.1c0.6,0,1.2,0,1.8,0C667.4,654.1,666.8,654.1,666.2,654.1z"/>
				<path d="M664.4,654c0.6,0.1,1.2,0.1,1.8,0.1C665.6,654.1,665,654,664.4,654z"/>
				<path d="M668.1,654.1c0.5,0,1.1,0,1.6-0.1C669.2,654,668.7,654.1,668.1,654.1z"/>
				<polygon points="683.9,651.5 683.8,651.5 683.9,651.5 				"/>
				<path d="M687.7,650.2L687.7,650.2C687.7,650.2,687.7,650.1,687.7,650.2C687.7,650.1,687.7,650.2,687.7,650.2z"/>
				<path d="M687.7,650.1C687.7,650.1,687.7,650.1,687.7,650.1L687.7,650.1L687.7,650.1z"/>
				<path d="M687.7,650C687.7,650,687.7,650,687.7,650L687.7,650L687.7,650z"/>
				<path d="M686.7,649.3c0,0-0.1,0-0.1,0v0C686.6,649.3,686.6,649.3,686.7,649.3z"/>
				<polygon points="683.9,651.5 683.8,651.5 683.8,651.5 				"/>
				<path d="M686.6,649.3L686.6,649.3C686.6,649.3,686.5,649.3,686.6,649.3L686.6,649.3z"/>
			</g>
		</g>
	</g>
	<g class="st16">
		<polygon points="684.7,652.1 684.6,652.1 684.7,652.1 684.7,652.1 		"/>
		<g id="celular_3_">
			<g>
				<path d="M688.5,650.7C688.6,650.7,688.6,650.8,688.5,650.7L688.5,650.7C688.6,650.8,688.6,650.7,688.5,650.7z M688.5,650.6
					L688.5,650.6C688.5,650.6,688.5,650.6,688.5,650.6L688.5,650.6z M688.5,650.7C688.6,650.7,688.6,650.8,688.5,650.7L688.5,650.7
					C688.6,650.8,688.6,650.7,688.5,650.7z M688.5,650.6L688.5,650.6C688.5,650.6,688.5,650.6,688.5,650.6L688.5,650.6z
					 M688.5,650.7C688.6,650.7,688.6,650.8,688.5,650.7L688.5,650.7C688.6,650.8,688.6,650.7,688.5,650.7z M688.5,650.6L688.5,650.6
					C688.5,650.6,688.5,650.6,688.5,650.6L688.5,650.6z"/>
				<path d="M773.3,668.7l-70.5-19.5c-3.7-1-9.7-1.3-13.5-0.6l-32.6,5.7c-3.8,0.7-3.9,4.7-0.2,5.7l67.6,19.9
					c3.7,1,13.9,2.7,17.7,2.1l38-8.7C783.6,672.7,777,669.7,773.3,668.7z M662.7,654.2L662.7,654.2c0.3,0,0.6,0.1,0.9,0.2
					C663.3,654.3,663,654.3,662.7,654.2z M684.6,652.1L684.6,652.1L684.6,652.1L684.6,652.1L684.6,652.1z M687.4,649.9
					C687.4,649.9,687.4,649.9,687.4,649.9L687.4,649.9c0,0,0.1,0,0.1,0C687.4,649.9,687.4,649.9,687.4,649.9z M688.5,650.6
					L688.5,650.6L688.5,650.6C688.5,650.6,688.5,650.6,688.5,650.6z M688.6,650.8C688.6,650.8,688.6,650.7,688.6,650.8
					C688.6,650.7,688.6,650.8,688.6,650.8L688.6,650.8z"/>
				<path d="M663.6,654.4c-0.3,0-0.6-0.1-0.9-0.2v0C663,654.3,663.3,654.3,663.6,654.4z"/>
				<path d="M667,654.7c0.6,0,1.2,0,1.8,0C668.2,654.7,667.6,654.7,667,654.7z"/>
				<path d="M665.2,654.6c0.6,0.1,1.2,0.1,1.8,0.1C666.4,654.7,665.8,654.6,665.2,654.6z"/>
				<path d="M669,654.7c0.5,0,1.1,0,1.6-0.1C670,654.6,669.5,654.7,669,654.7z"/>
				<polygon points="684.7,652.1 684.7,652.1 684.7,652.1 				"/>
				<path d="M688.6,650.8L688.6,650.8C688.6,650.8,688.6,650.7,688.6,650.8C688.6,650.7,688.6,650.8,688.6,650.8z"/>
				<path d="M688.6,650.7C688.6,650.7,688.6,650.7,688.6,650.7L688.6,650.7L688.6,650.7z"/>
				<path d="M688.5,650.6C688.5,650.6,688.5,650.6,688.5,650.6L688.5,650.6L688.5,650.6z"/>
				<path d="M687.5,649.9c0,0-0.1,0-0.1,0v0C687.4,649.9,687.5,649.9,687.5,649.9z"/>
				<polygon points="684.7,652.1 684.6,652.1 684.7,652.1 				"/>
				<path d="M687.4,649.9L687.4,649.9C687.4,649.9,687.4,649.9,687.4,649.9L687.4,649.9z"/>
			</g>
		</g>
	</g>
	<g>
		<polygon class="st22" points="683.9,646.7 683.9,646.7 683.8,646.7 683.8,646.7 		"/>
		<g id="celular">
			<g>
				<path d="M687.7,645.2C687.7,645.2,687.7,645.2,687.7,645.2C687.7,645.2,687.7,645.2,687.7,645.2L687.7,645.2z M687.7,645.3
					L687.7,645.3C687.7,645.3,687.7,645.3,687.7,645.3L687.7,645.3z M687.7,645.4L687.7,645.4C687.7,645.4,687.7,645.4,687.7,645.4
					C687.7,645.4,687.7,645.4,687.7,645.4z M687,644.7c0,0,0.1,0,0.1,0.1C687.1,644.8,687.1,644.7,687,644.7
					C687,644.7,687,644.7,687,644.7C687,644.7,687,644.7,687,644.7z M687,644.7c0,0,0.1,0,0.1,0.1
					C687.1,644.8,687.1,644.7,687,644.7C687,644.7,687,644.7,687,644.7C687,644.7,687,644.7,687,644.7z M687.7,645.2
					C687.7,645.2,687.7,645.2,687.7,645.2C687.7,645.2,687.7,645.2,687.7,645.2L687.7,645.2z M687.7,645.3L687.7,645.3
					C687.7,645.3,687.7,645.3,687.7,645.3L687.7,645.3z M687.7,645.4L687.7,645.4C687.7,645.4,687.7,645.4,687.7,645.4
					C687.7,645.4,687.7,645.4,687.7,645.4z M687,644.7c0,0,0.1,0,0.1,0.1C687.1,644.8,687.1,644.7,687,644.7
					C687,644.7,687,644.7,687,644.7C687,644.7,687,644.7,687,644.7z M687.7,645.2C687.7,645.2,687.7,645.2,687.7,645.2
					C687.7,645.2,687.7,645.2,687.7,645.2L687.7,645.2z M687.7,645.3L687.7,645.3C687.7,645.3,687.7,645.3,687.7,645.3L687.7,645.3z
					 M687.7,645.4L687.7,645.4C687.7,645.4,687.7,645.4,687.7,645.4C687.7,645.4,687.7,645.4,687.7,645.4z"/>
				<path d="M687.5,645.8c-0.3,0.2-0.9,0.5-1.8,0.6l-15.3,2.7c-2.4,0.4-6,0.3-8.6-0.2l0,0c2.6,0.5,6.2,0.7,8.6,0.2l15.3-2.7
					C686.6,646.2,687.2,646,687.5,645.8z"/>
				<path d="M687.7,645.3C687.7,645.4,687.7,645.4,687.7,645.3L687.7,645.3C687.7,645.4,687.7,645.4,687.7,645.3z"/>
				<path d="M687.7,645.3C687.7,645.3,687.7,645.3,687.7,645.3L687.7,645.3L687.7,645.3z"/>
				<path d="M687.7,645.2C687.7,645.2,687.7,645.2,687.7,645.2C687.7,645.2,687.7,645.2,687.7,645.2L687.7,645.2z"/>
				<path d="M687,644.7C687,644.7,687.1,644.7,687,644.7c0.1,0,0.1,0,0.1,0.1C687.1,644.8,687.1,644.7,687,644.7z"/>
				<path d="M686.6,644.5C686.6,644.5,686.6,644.5,686.6,644.5C686.6,644.5,686.6,644.5,686.6,644.5L686.6,644.5z"/>
				<path d="M775,664.5c-0.3-0.4-1.2-0.8-2.5-1.2L702,643.9c-3.7-1-9.7-1.3-13.4-0.6l-32.6,5.7c-1.3,0.2-2.2,0.5-2.6,0.9
					c-0.1,0.1-0.2,0.2-0.2,0.3c-0.1,0.1-0.1,0.3,0,0.4c0,0.1,0.1,0.2,0.2,0.3c0.4,0.4,1.2,0.8,2.4,1.1l4,1.1l66.5,18.4
					c3.6,1,9.7,1.3,13.4,0.6l28.8-5.1l3.8-0.7c1.4-0.3,2.3-0.6,2.7-1C775.2,665.1,775.2,664.8,775,664.5z M768.5,666.1l-29.2,5.1
					c-3.8,0.7-9.8,0.4-13.4-0.6l-66.4-18.4c-3.7-1-3.6-2.4,0.2-3l2.2-0.4c0,0,0,0,0,0c1.5,0.3,3.5,0.5,5.3,0.5c0.6,0,1.2,0,1.7-0.1
					c0,0,0,0,0,0c0.3,0,0.5,0,0.8-0.1c0.3,0,0.5-0.1,0.8-0.1l10.8-1.9l2.6-0.5l0,0h0l0,0h0l1.8-0.3c0.9-0.2,1.5-0.4,1.8-0.6
					c0,0,0.1-0.1,0.1-0.1c0,0,0.1-0.1,0.1-0.1c0,0,0-0.1,0-0.1v0c0,0,0-0.1,0-0.1h0c0,0,0,0,0-0.1c0,0,0,0,0,0
					c-0.1-0.1-0.2-0.3-0.4-0.4c0,0-0.1,0-0.1,0c0,0,0,0,0,0c0,0,0,0-0.1,0c0,0,0,0,0,0c0,0,0,0,0,0c0,0-0.1,0-0.1-0.1
					c-0.1,0-0.1-0.1-0.2-0.1c0,0-0.1,0-0.1,0l2.3-0.4c3.8-0.7,9.8-0.4,13.4,0.6l66.4,18.4C772.3,664.1,772.3,665.4,768.5,666.1z"/>
				<path class="st28" d="M702.3,644.7l66.4,18.3c3.7,1,3.6,2.4-0.2,3l-29.2,5.1c-3.8,0.7-9.8,0.4-13.4-0.6l-66.4-18.3
					c-3.7-1-3.6-2.4,0.2-3l2.2-0.4c0,0,0,0,0,0l0,0c2.6,0.5,6.2,0.7,8.6,0.2l15.3-2.7c0.9-0.2,1.5-0.4,1.8-0.6c0,0,0.1-0.1,0.1-0.1
					c0,0,0.1-0.1,0.1-0.1c0,0,0-0.1,0-0.1l0,0c0,0,0-0.1,0-0.1c0,0,0,0,0,0c0,0,0-0.1,0-0.1c0,0,0,0,0,0l0,0
					c-0.1-0.1-0.2-0.3-0.4-0.4c0,0,0,0-0.1,0c0,0,0,0,0,0c0,0-0.1,0-0.1-0.1c0,0,0,0-0.1,0c0,0-0.1,0-0.1-0.1
					c-0.1,0-0.1-0.1-0.2-0.1c0,0-0.1,0-0.1,0l0,0c0,0,0,0,0,0l2.3-0.4C692.6,643.4,698.6,643.7,702.3,644.7z"/>
				<path d="M687,644.7C687,644.7,687,644.7,687,644.7c0.1,0.1,0.1,0.1,0.2,0.1C687.1,644.8,687.1,644.7,687,644.7
					C687,644.7,687,644.7,687,644.7z"/>
			</g>
		</g>
	</g>
	<g class="st27">
		<path class="st29" d="M567.2,1406.1H382.7c-59.1,0-107-47.9-107-107V774.9c0-59.1,47.9-107,107-107h184.5c59.1,0,107,47.9,107,107
			v524.2C674.1,1358.2,626.3,1406.1,567.2,1406.1z"/>
		<g id="celular_1_" class="st30">
			<g>
				<path d="M615.6,667.1H335.5c-32.3,0-58.5,26.2-58.5,58.5v622c0,32.3,26.2,58.5,58.5,58.5h280.1c32.3,0,58.5-26.2,58.5-58.5v-622
					C674.1,693.3,647.9,667.1,615.6,667.1z M659.2,1329.6c0,32.3-26.2,58.5-58.5,58.5H350.4c-32.3,0-58.5-26.2-58.5-58.5V743.5
					c0-32.3,26.2-58.5,58.5-58.5h18.8c3.2,19.4,20.1,34.2,40.4,34.2h131c20.3,0,37.2-14.8,40.4-34.2h19.7
					c32.3,0,58.5,26.2,58.5,58.5V1329.6z"/>
				<path class="st22" d="M581,685.1c-3.3,19.4-20.1,34.2-40.4,34.2h-131c-20.3,0-37.2-14.8-40.4-34.2H581z"/>
				<path d="M581.6,667.5v10.7c0,2.3-0.2,4.6-0.6,6.8c-3.3,19.4-20.1,34.2-40.4,34.2h-131c-20.3,0-37.2-14.8-40.4-34.2
					c-0.4-2.2-0.6-4.5-0.6-6.8v-10.7H581.6z"/>
			</g>
		</g>
	</g>
	<line class="st21" x1="653.2" y1="655.5" x2="653" y2="659.5"/>
	<path class="st31" d="M775,665.4v4.8c-0.4,0.4-1.3,0.7-2.7,1l-32.6,5.7c-3.8,0.7-9.8,0.4-13.4-0.6l-70.5-19.5
		c-1.4-0.4-2.3-0.8-2.6-1.3l0-0.7l0.1-3.9c0.4,0.4,1.2,0.8,2.4,1.1l4,1.1l66.5,18.4c3.6,1,9.7,1.3,13.4,0.6l28.8-5.1l3.8-0.7
		C773.7,666.1,774.6,665.8,775,665.4z"/>
	<polyline class="st21" points="775,665.4 775,664.5 775,663 	"/>
</g>
</svg>
