<?xml version="1.0" encoding="utf-8"?>
<!-- Generator: Adobe Illustrator 22.0.1, SVG Export Plug-In . SVG Version: 6.00 Build 0)  -->
<svg version="1.1" xmlns="http://www.w3.org/2000/svg" xmlns:xlink="http://www.w3.org/1999/xlink" x="0px" y="0px"
	 viewBox="0 0 1080 1080" style="enable-background:new 0 0 1080 1080;" xml:space="preserve">
<style type="text/css">
	.st0{fill:#FDCB98;}
	.st1{opacity:0.1;fill:#FFFFFF;}
	.st2{opacity:0.57;fill:#FFFFFF;}
	.st3{fill:#FFFFFF;}
</style>
<g id="mão">
	<path class="st0" d="M1147,1140.7c-3.5,29.2-18.2,57.8-41.4,86c-36.9,44.9-105.4,97.2-161.4,78.9c-23.9-7.8-25.5-21.7-81.2-76.6
		c-18.8-18.4-39.2-36-80-71c-121-103.8-172.2-111-217.2-152.3c-12.8-11.8-20.2-22.2-31.3-36.2c-14-17.7-23.8-32.1-31.2-44.5
		c-32.7-53.9-31.2-57.4-44.3-70c-21.2-20.5-104.1-25.3-159.5-43.9c-34.5-11.6-58.4-28.5-50-57.9c6.3-22.2,27.1-30.7,48.2-29.8
		c3.2,0.1,6.4,0.5,9.7,1h0c38.2,6,86.1,34.9,120.6,13.5c7.5-4.7,14.5-11.9,20.2-18.2c-14.5-0.4-44.5-14.9-55-18.2
		c-25-8-49.9-16.6-73.7-27.6c-8.4-3.9-18.4-8.9-28.3-14.9c-27.8-17-54-42.3-36.4-74.6c6.8-12.4,22.7-15.4,26-16
		c9.8-1.8,18.5-0.4,27,3.1c17.3,7,33.7,22.2,57.6,34.7C421.7,635.6,489,633.4,494,620c2.6-6.9-11-17.9-31.8-34.7
		c-14.9-12-28.6-25.9-72.1-44.9c-34.6-15.2-59.8-30.5-84.1-55.5c-6.2-6.4-12.4-13.5-18.7-21.3c-13.9-17.5-23-51.4-7.3-70.5
		c11.8-14.2,31.2-12.9,46.6-5.2c4.6,2.3,8.8,5.2,12.4,8.3c21.2,18.9,39.2,37.2,65.9,48.8c43.9,19.1,55.1,8.5,90,32
		c25.2,17,40,36.5,48,32c2-1.1,7.5-6-2-46c-13.4-56.5-21.8-94.3-54.4-122.5c-30.7-26.5-52.6-21.4-65.7-47.3
		c-11.1-21.8-8.2-54.3,7.9-65.7c24.5-17.4,78.6,14.8,110.5,44.7c23.7,22.3,45.3,53,86.8,186.7c14.1,45.4,24.6,118.6,60.2,153
		c6.9,6.6,17.9,10,26.2,5.3c8.4-4.8,9.4-17.9,9.8-22.7c1.9-26.5,0.9-72,5.6-116.6c5.6-52.6,19.1-103.8,54.9-120.9
		c7.5-3.6,13.9-5.3,19.2-5.5c38-1.6,25.2,73.7,22.3,109c-0.3,4-0.5,7.5-0.5,10.4c0,6.3-2.5,5,23,130c1.7,8.5,3.4,17.2,4.8,26
		c4.7,28.8,7.4,58.8,4.6,88c-1.5,16.3-4.8,32.2-10.3,47.6c0,0,0,0,0,0c-16.4,45.4-18,80.9,21.9,110.9c39.3,29.5,81.7,56,125.1,79.8
		c43.4,23.8,87.5,49.1,119.2,87.1c14.6,17.5,24.4,34.8,30,52C1147.5,1108.5,1148.9,1124.7,1147,1140.7z"/>
	<g id="Camada_3">
	</g>
	<path class="st1" d="M316.3,477c-3.9,3.5-7.2,6.1-10.2,7.8c-6.2-6.4-12.4-13.5-18.7-21.3c-13.9-17.5-23-51.4-7.3-70.5
		c11.8-14.2,31.2-12.9,46.6-5.2C339.8,412.5,338.2,457,316.3,477z"/>
	<path class="st1" d="M292.7,658c-0.5,0.3-1,0.7-1.4,1c-27.8-17-54-42.3-36.4-74.6c6.8-12.4,22.7-15.4,26-16
		c9.8-1.8,18.5-0.4,27,3.1C323,596.5,320.2,638.6,292.7,658z"/>
	<path class="st1" d="M299.5,811.1c-34.5-11.6-58.4-28.5-50-57.9c6.3-22.2,27.1-30.7,48.2-29.8c3.2,0.1,6.4,0.5,9.7,1h0
		C324.5,747.1,323.6,789.2,299.5,811.1z"/>
	<path class="st1" d="M1147,1140.7c-10.9-5-23.1-13.4-32-19.7C893.6,966,782.9,888.5,770.6,786.1c-9-74.9,16.3-77.2,14.4-160.1
		c-1.6-70.4-41.2-103.9-57.2-148.2c5.6-52.6,19.1-103.8,54.9-120.9c7.5-3.6,13.9-5.3,19.2-5.5c38-1.6,25.2,73.7,22.3,109
		c-0.3,4-0.5,7.5-0.5,10.4c0,6.3-2.5,5,23,130c1.7,8.5,3.4,17.2,4.8,26c-1.3,29.6-0.3,59.3,4.6,88c-1.5,16.3-4.8,32.2-10.3,47.6
		c0,0,0,0,0,0c-16.4,45.4-18,80.9,21.9,110.9c39.3,29.5,81.7,56,125.1,79.8c43.4,23.8,87.5,49.1,119.2,87.1
		c14.6,17.5,24.4,34.8,30,52C1147.5,1108.5,1148.9,1124.7,1147,1140.7z"/>
	<path class="st2" d="M824.2,460.4c-7.4-5.5-14.8-14.4-19.2-21.4c-13.3-21.1-10.4-43.4-8-62c0.9-6.9,2.6-16.4,5-25.6
		C840,349.8,827.2,425.1,824.2,460.4z"/>
</g>
<g id="celular">
	<g>
		<path d="M680.2,909.5H400.1c-32.3,0-58.5-26.2-58.5-58.5V229c0-32.3,26.2-58.5,58.5-58.5h280.1c32.3,0,58.5,26.2,58.5,58.5v622
			C738.7,883.3,712.5,909.5,680.2,909.5z"/>
		<path class="st3" d="M665.3,891.5H415c-32.3,0-58.5-26.2-58.5-58.5V246.9c0-32.3,26.2-58.5,58.5-58.5h250.3
			c32.3,0,58.5,26.2,58.5,58.5V833C723.8,865.3,697.6,891.5,665.3,891.5z"/>
		<path d="M605.2,222.7h-131c-22.6,0-41-18.4-41-41v-10.7h213v10.7C646.2,204.3,627.8,222.7,605.2,222.7z"/>
	</g>
</g>
</svg>
