<?xml version="1.0" encoding="utf-8"?>
<!-- Generator: Adobe Illustrator 22.0.1, SVG Export Plug-In . SVG Version: 6.00 Build 0)  -->
<svg version="1.1" xmlns="http://www.w3.org/2000/svg" xmlns:xlink="http://www.w3.org/1999/xlink" x="0px" y="0px"
	 viewBox="0 0 1080 1080" style="enable-background:new 0 0 1080 1080;" xml:space="preserve">
<style type="text/css">
	.st0{fill:#FDCB98;}
	.st1{opacity:0.1;fill:#FFFFFF;}
	.st2{opacity:0.57;fill:#FFFFFF;}
	.st3{fill:#FFFFFF;}
</style>
<g id="Camada_4">
</g>
<g id="mão">
	<path class="st0" d="M356.5,411.8v111.9c-5.2-2.9-10.1-6-14.9-9.2c-12.6-8.4-24.2-18-35.5-29.7c-6.2-6.4-12.4-13.5-18.7-21.3
		c-13.9-17.5-23-51.4-7.3-70.5c11.8-14.2,31.2-12.9,46.6-5.2c4.6,2.3,8.8,5.2,12.4,8.3c0.8,0.7,1.7,1.5,2.5,2.2
		C346.7,403,351.6,407.5,356.5,411.8z"/>
	<path class="st0" d="M356.5,601.1v88c-5-1.8-10-3.7-14.9-5.7c-7.4-3-14.8-6.1-22-9.5c-8.4-3.9-18.4-8.9-28.3-14.9
		c-27.8-17-54-42.3-36.4-74.6c6.8-12.4,22.7-15.4,26-16c9.8-1.8,18.5-0.4,27,3.1c10.8,4.4,21.4,12.1,33.7,20.3
		C346.3,594.8,351.2,598,356.5,601.1z"/>
	<path class="st0" d="M356.5,738v87.4c-5-1-10-2-14.9-3.1c-14.8-3.2-29.2-6.8-42.1-11.1c-34.5-11.6-58.4-28.5-50-57.9
		c6.3-22.2,27.1-30.7,48.2-29.8c3.2,0.1,6.4,0.5,9.7,1h0c10.8,1.7,22.4,5.2,34.2,8.9C346.5,734.9,351.5,736.5,356.5,738z"/>
	<path class="st0" d="M1147,1140.7c-3.5,29.2-18.2,57.8-41.4,86c-36.9,44.9-105.4,97.2-161.4,78.9c-23.9-7.8-25.5-21.7-81.2-76.6
		c-18.8-18.4-39.2-36-80-71c-121-103.8-172.2-111-217.2-152.3c-12.8-11.8-20.2-22.2-31.3-36.2c-14-17.7-23.8-32.1-31.2-44.5
		c-3.5-5.7-6.6-10.9-9.3-15.6c-4.2-7.1-7.6-13-10.5-18h181.9c32.3,0,58.5-26.2,58.5-58.5V550.7c0.6-22.2,1.4-47.7,4.1-73
		c0.4-3.4,0.7-6.7,1.2-10c0.2-1.6,0.4-3.1,0.6-4.7c0-0.1,0-0.3,0.1-0.4c0.2-1.3,0.3-2.5,0.5-3.8c0.3-1.8,0.5-3.5,0.8-5.3
		c0.3-2,0.7-3.9,1-5.9c0.2-1.1,0.4-2.3,0.6-3.4c0-0.2,0.1-0.3,0.1-0.5c0.2-1.1,0.4-2.3,0.7-3.4c0.3-1.2,0.5-2.4,0.8-3.6
		c0.3-1.2,0.6-2.5,0.8-3.7c0.2-0.6,0.3-1.3,0.5-1.9c0.2-0.8,0.4-1.6,0.6-2.4c0.2-0.9,0.4-1.8,0.7-2.6c0.3-1.2,0.6-2.3,0.9-3.4
		c0.3-0.9,0.5-1.8,0.8-2.6c0.1-0.3,0.1-0.5,0.2-0.8c0.1-0.2,0.1-0.5,0.2-0.7c0.2-0.8,0.5-1.6,0.7-2.3c0.4-1.4,0.9-2.8,1.3-4.1
		c0.3-0.9,0.7-1.9,1-2.8c0.3-1,0.7-1.9,1.1-2.9c0.2-0.5,0.4-1,0.5-1.4c0.3-0.8,0.6-1.5,0.9-2.3c0.3-0.6,0.5-1.2,0.8-1.8
		c0.2-0.6,0.5-1.1,0.7-1.7c0.2-0.5,0.5-1,0.7-1.6c0.3-0.7,0.6-1.3,0.9-2c0.4-0.9,0.8-1.7,1.3-2.6c0.2-0.4,0.4-0.7,0.6-1.1
		s0.4-0.7,0.6-1.1c0.2-0.4,0.4-0.7,0.6-1.1c0.3-0.6,0.6-1.1,0.9-1.7c0.5-0.8,0.9-1.7,1.4-2.5c0.1-0.3,0.3-0.5,0.4-0.7
		c0.1-0.1,0.1-0.2,0.2-0.3c0.2-0.3,0.4-0.7,0.6-1c0.1-0.1,0.1-0.2,0.2-0.3c0.4-0.7,0.9-1.4,1.3-2c0.4-0.5,0.7-1.1,1.1-1.6
		c0.2-0.3,0.5-0.7,0.7-1c0.4-0.5,0.8-1,1.2-1.6c0.4-0.5,0.8-1,1.2-1.6c0.6-0.7,1.1-1.4,1.7-2.1c0.4-0.4,0.7-0.8,1.1-1.3
		c0.6-0.7,1.2-1.3,1.8-2c0.2-0.3,0.5-0.5,0.7-0.8c0.3-0.3,0.6-0.6,1-1c0.5-0.5,1-1,1.6-1.5c0.3-0.3,0.6-0.5,0.9-0.8
		c0.3-0.3,0.6-0.5,0.8-0.7c0.6-0.5,1.2-1,1.8-1.5c0.6-0.5,1.2-0.9,1.8-1.3c0.3-0.2,0.6-0.5,0.9-0.7c0.3-0.2,0.6-0.4,0.9-0.7
		c0.6-0.4,1.3-0.8,1.9-1.2c0.5-0.3,1-0.6,1.6-0.9c0,0,0,0,0,0c0.2-0.2,0.5-0.3,0.7-0.4c0.5-0.3,1.1-0.6,1.6-0.9
		c0.3-0.1,0.5-0.3,0.8-0.4c0.4-0.2,0.8-0.4,1.2-0.6c7.5-3.6,13.9-5.3,19.2-5.5c38-1.6,25.2,73.7,22.3,109c-0.3,4-0.5,7.5-0.5,10.4
		c0,6.3-2.5,5,23,130c1.7,8.5,3.4,17.2,4.8,26c4.7,28.8,7.4,58.8,4.6,88c-1.5,16.3-4.8,32.2-10.3,47.6c0,0,0,0,0,0
		c-16.4,45.4-18,80.9,21.9,110.9c39.3,29.5,81.7,56,125.1,79.8c43.4,23.8,87.5,49.1,119.2,87.1c14.6,17.5,24.4,34.8,30,52
		C1147.5,1108.5,1148.9,1124.7,1147,1140.7z"/>
	<g id="Camada_3">
	</g>
	<path class="st1" d="M316.3,477c-3.9,3.5-7.2,6.1-10.2,7.8c-6.2-6.4-12.4-13.5-18.7-21.3c-13.9-17.5-23-51.4-7.3-70.5
		c11.8-14.2,31.2-12.9,46.6-5.2C339.8,412.5,338.2,457,316.3,477z"/>
	<path class="st1" d="M292.7,658c-0.5,0.3-1,0.7-1.4,1c-27.8-17-54-42.3-36.4-74.6c6.8-12.4,22.7-15.4,26-16
		c9.8-1.8,18.5-0.4,27,3.1C323,596.5,320.2,638.6,292.7,658z"/>
	<path class="st1" d="M299.5,811.1c-34.5-11.6-58.4-28.5-50-57.9c6.3-22.2,27.1-30.7,48.2-29.8c3.2,0.1,6.4,0.5,9.7,1h0
		C324.5,747.1,323.6,789.2,299.5,811.1z"/>
	<path class="st1" d="M1147,1140.7c-10.9-5-23.1-13.4-32-19.7C893.6,966,782.9,888.5,770.6,786.1c-9-74.9,16.3-77.2,14.4-160.1
		c-1.6-70.4-41.2-103.9-57.2-148.2c5.6-52.6,19.1-103.8,54.9-120.9c7.5-3.6,13.9-5.3,19.2-5.5c38-1.6,25.2,73.7,22.3,109
		c-0.3,4-0.5,7.5-0.5,10.4c0,6.3-2.5,5,23,130c1.7,8.5,3.4,17.2,4.8,26c-1.3,29.6-0.3,59.3,4.6,88c-1.5,16.3-4.8,32.2-10.3,47.6
		c0,0,0,0,0,0c-16.4,45.4-18,80.9,21.9,110.9c39.3,29.5,81.7,56,125.1,79.8c43.4,23.8,87.5,49.1,119.2,87.1
		c14.6,17.5,24.4,34.8,30,52C1147.5,1108.5,1148.9,1124.7,1147,1140.7z"/>
	<path class="st2" d="M824.2,460.4c-7.4-5.5-14.8-14.4-19.2-21.4c-13.3-21.1-10.4-43.4-8-62c0.9-6.9,2.6-16.4,5-25.6
		C840,349.8,827.2,425.1,824.2,460.4z"/>
</g>
<g id="celular">
	<g>
		<path d="M680.2,170.5H400.1c-32.3,0-58.5,26.2-58.5,58.5v622c0,32.3,26.2,58.5,58.5,58.5h280.1c32.3,0,58.5-26.2,58.5-58.5V229
			C738.7,196.7,712.5,170.5,680.2,170.5z M723.8,833c0,32.3-26.2,58.5-58.5,58.5H415c-32.3,0-58.5-26.2-58.5-58.5V246.9
			c0-32.3,26.2-58.5,58.5-58.5h18.8c3.2,19.4,20.1,34.2,40.4,34.2h131c20.3,0,37.2-14.8,40.4-34.2h19.7c32.3,0,58.5,26.2,58.5,58.5
			V833z"/>
		<path class="st3" d="M645.6,188.5c-3.3,19.4-20.1,34.2-40.4,34.2h-131c-20.3,0-37.2-14.8-40.4-34.2H645.6z"/>
		<path d="M646.2,170.9v10.7c0,2.3-0.2,4.6-0.6,6.8c-3.3,19.4-20.1,34.2-40.4,34.2h-131c-20.3,0-37.2-14.8-40.4-34.2
			c-0.4-2.2-0.6-4.5-0.6-6.8v-10.7H646.2z"/>
	</g>
</g>
</svg>
